<svg xmlns="http://www.w3.org/2000/svg" viewBox="0 0 1e3 850"><g class="other_countries" style="fill:#e0e0e0;stroke:#0978ab;stroke-width:.5"><path d="m-21.202 872.13 21-.22 13.11-22.04.714-1.43 3.928-4.47 5.715-.89h2.678l2.5 1.61.715 1.43h2.32l1.787-1.25 3.214-2.86 1.429-2.5 2.142-3.21 1.965-1.08h3.035l3.572 2.33 3.036.17 11.428-2.67 1.429-1.61 1.607-2.68.357-2.32-1.25-.54-.714-2.14.714-1.07 3.929-2.14 7.857-3.4 5.714-1.25 4.643-1.6 1.964-2.5 1.964-.36 2.679-3.57 10.36-5.18 3.75-.54 3.75-2.85 13.75-10.9 1.07-2.85 5.18-3.58 2.5-1.25 6.42-3.39 7.68-2.5 6.79-1.07 6.43-.54 3.75-1.96 1.96-4.29 3.75-.35 2.32-1.79-.18-2.32 1.25-1.25 4.83-2.68v-.89l-.9-3.04-1.07-6.43.54-3.57 1.25-1.78 4.1-2.15 7.5-1.6 6.79-.54 2.68-1.43 5.89-5.89 2.14-.18-.89 5.54 1.43 1.43 2.68 2.32 1.61.89.71-.89 1.43-4.47 1.25-1.96 2.14.18-.89 6.43.71 2.32 1.61-1.07 2.86.89 1.78-.54.18-5.18 1.07-.35 1.61 4.46 2.14 1.07.9-3.57 1.25-1.07.35 3.04h1.79l1.25-3.93 1.96.71 1.25 2.68 1.79.18 1.43-.72.53-3.92 1.43-.36 2.86 1.07v3.93l1.25 1.78 2.32-.71 2.32-4.29 4.29-3.03 2.14-1.97.71-4.64-1.6-3.03-1.25-2.86.35-1.79 3.4-.35v-1.97l.53-2.14.18-2.32 1.43.71.18 4.29 3.21 1.78 3.22 2.5 6.07.18 2.5 1.07 2.86 4.11 2.67 9.11 1.97 9.46v5.89l.71 6.25.54 3.4 5.53 8.75 5.54 9.28 1.43-1.96 2.14-.18.36 3.04.89.53-1.96 1.97.35 1.78 2.5-.71.9 2.5 1.07 3.03 1.43 1.97.18-3.04 2.5-1.07 2.5 1.61 1.25 1.43 4.28 1.6-.71 2.32 2.32 2.15v3.03l2.32 1.79 2.14 2.68-.89 2.5-1.07 1.43-4.29-1.79-2.32-2.32-1.78-.18.17 2.32 1.79 4.11 1.25 2.68 3.93 2.85h1.61v-3.92l.53-1.97 1.79.18v3.57l-1.07 1.07.53 1.79 2.86 2.68 1.43 5.89 2.14 5.18 1.25 4.28-.18 4.47 1.43 4.82.71 3.75-.53 5.18 266.41 3.69-4.54-5.81-1.27-2.02.51-3.03-1.77-5.31-5.3-3.78-3.03-.26-6.32-7.32-.75-3.54-2.78-2.77-1.26-3.29 2.27-2.77 1.77-4.3-.26-7.07 2.02-3.28 1.27-3.54 4.04-1.77 3.53-3.78 2.78-1.52 3.28-4.04-1.01-4.29 2.78-2.27.25-5.06-1.26-2.02 3.79 1.01 3.53-1.26 3.04.76 3.28-1.52.25-5.3 2.27-1.51 3.03-1.01 2.78-2.78 4.8-1.27.5-1 3-1.6.53.48h2.02l1.01-2.27 2.78-.76v-4.8l2.78-.75.76 3.03 2.52 3.28 1.52-1.52 2.78 1.52 2.77.76 1.01 4.04 1.77-1.27 6.06-1.26-1.01-4.29 1.27-.25 3.03 3.78 5.8.51-1.26 2.27-2.78 4.3-1.01 8.08 2.78.75.51 5.81 4.29 2.28-1.26 1.01.75 2.52 7.58-.25 3.54-3.54.25-1.51-3.54-3.54-.75-3.53-2.78-1.01-1.01-3.29 2.27-2.27 3.54-2.52 2.52-.26 3.54-4.8 4.04-.25 1.76-2.27 5.56-.25 1.77-1.52h3.28l3.28-2.27v-2.27l3.03-1.01 2.28-1.27h7.32l.76-2.27 3.79 1.01 4.29-3.03h4.04l-.4-5.91.95-2.13 3.39 4.36 3.54-4.56-1.29-3.19 2.8 2.69 1.51-.29.97-1.83-.25-1.82-1.42-3.69-.35-3.48-.86-1.36.75-2.02 2.03 2.02 2.21-.21.99 2.4 2.36 2.21 2.78-.16-1.02 3.59 2.52-.26 1.68.45 2.83.51-.57-1.82 2.03-1.25-3.19-2.7 3.39-1.35 2.9 1.36.28-3.78 3.53-1.77.51 3.79 3.28-.26 1.52-2.52 3.53-3.28 3.03-.26 1.27.76.25 2.27h2.78l.75-4.29 1.01-1.26 4.04 2.27 3.79-2.78 2.28-.5 3.03-2.27 4.79-.76.51-5.31 4.04-1.76-1.52-2.53-2.02-.76 5.81-.5 3.79-1.77-2.02-1.77 1.77-2.52 3.53.25.76-3.54 2.78.51-1.01-4.55 3.79 1.01v-4.29h2.77l2.03-3.28 2.02-2.02-1.27-2.53-2.27-2.02 4.04-.76 1.77-2.52 3.03-1.52h4.29l1.26-1.76 1.01-2.28-2.02-1.26-.75-2.02 5.3-.25 1.01-1.77-1.51-2.78 2.02-1.77 2.02-1.76 2.27-.76-2.27-2.78.5-2.78 1.77-2.02 2.78 1.77 2.27.51.5-1.77-2.27-3.29 2.27-3.53-1.26-2.27.51-2.28-1.52-2.52 1.26-4.04 1.77-2.28-1.01-1.76-3.79-3.29.76-2.77 3.28.5 1.01 1.26.76-4.04 3.29-2.27 1.51-1.26.25-3.54 2.02-2.02-1.76-1.26h2.52l2.78-3.79-.25-3.79.25-2.27 1.77-5.05 1.51-3.54 1.77-1.26.5-6.06 3.04-1.26.75 5.05 2.78-3.79 3.28-2.27-2.02-4.3-1.76-3.03 2.77-2.52v-3.54l2.78-3.79-1.01-3.03 1.77-1.51-1.01-3.79-.51-6.06-1.76 4.29-2.78.26 3.53-4.8 4.3-3.29 3.53-1.76-.5-2.53-5.56-2.27-2.27.76-1.52 3.53-2.52 1.01-3.29-2.27-4.54-3.54-3.79.51-4.8 4.29-2.52 1.01-4.55-.76-4.04-1.01-.76-1.26 3.29-1.77 5.3-.5 3.03-1.01.25-3.03 6.32-5.05 4.54-3.29 3.29-4.04.75-4.04-3.53-3.03-5.31-2.02-4.04-2.27-2.02-2.27-4.04-.76-4.8-.76-.5-2.78-3.79-.75-4.04 2.02-1.51.5 1.76-2.78 3.29-1.51 4.79.5 1.77 2.53 2.78 1.01h4.8l3.53.5 3.54 2.02 4.54.76 2.28-.5.76-1.52-2.78-3.79-5.31-4.8-4.79-1.26-1.77-5.05-4.55-1.77-5.05-1.26-1.77-1.26.76-3.28-1.26-3.29-6.06-8.84-3.79-6.31-4.8-9.09-2.52-2.53-6.57-2.02-5.81-1.76-2.27-2.53-5.56-1.01-.5-4.55 2.52-2.52.51-4.29 1.51-2.28 2.02-5.05 3.29-1.01.75-2.52 1.52-4.04 2.53-2.28-2.78-3.03 1.51-1.51 2.53 1.26 3.28.5 2.78-2.77-.25-6.06 1.51-2.78 2.27-.51 4.55-3.79 3.28-2.27 4.3-3.28 2.52-3.28 2.78.5 1.26-1.26 2.78 2.52 3.28-2.52-1.26-3.28 1.01-2.53-.25-4.55-3.28-1.26-2.78 1.52-3.29-1.52-5.05 2.02-4.04 2.02-2.27-1.01-1.77-2.02-2.27.51-4.29-2.78-3.29-1.52-4.04 1.52-4.29 3.28-.76 4.04-4.54 4.04-.76 4.3-3.28 3.53-7.08-.76-5.3-2.02-.76-9.59-3.28-3.54-4.8-1.26-3.03-2.27-2.78 1.01-3.28 2.02-3.03-2.53-4.04-3.28-2.78-5.3-.5-6.57 1.76-4.29 4.05-2.78 2.27-.51 3.53 1.77 2.53-1.26 1.51-1.77h3.54l1.51-1.01 1.27.51.76-5.06 1.26-4.54 2.78-4.55 2.52-1.51V333l5.3-3.29 6.07-4.54 3.03-2.02.25-5.05 3.79-5.31 1.51-1.51.51-3.29 3.28-2.02 5.05-.25 3.54-2.02 3.03.76 5.05 5.05 2.78 2.02-1.77 4.04-1.77 4.04-1.26 3.79-4.04 3.03-1.77 2.02-.25 5.05-2.28 1.26 3.54 2.02 2.02 1.77 3.53-1.01-1.51 4.29-.51 2.53-2.77 1.51-1.01 2.02-2.28.26-1.01 3.79 1.52 1.76 4.04-3.28 3.53-4.04 4.05-2.78 2.27-2.52 1.77-4.04 7.57-6.82 5.3-4.36 2.52-.25 1.13-2.46 4.61-.82 2.08-2.08 5.42-.5 1.4-.52h5.8l2.28 2.78 2.27-2.02 5.05 1.51 5.05-.5 1.26 3.78 1.52 2.02-2.27 3.03v8.09l2.52 1.26h3.03l-4.04 2.27-2.02 2.02-1.51 6.06-1.52 4.3 6.06.75 3.79 3.79 5.81.25.25-5.05 2.02-.75 3.79 2.52h3.03l4.8-1.01h4.29v3.03l2.53 2.78h2.77l-1.51 3.03 1.77 2.27-1.52 1.01 3.54 3.03.5 2.78-3.28-1.01-2.53.25-.5 2.02-2.27-.5-.26 2.27h-1.76l-.51 3.03 2.53.76h3.53l1.01 4.04 1.52 2.78v3.79l4.04 1.76.75 3.29 1.77 2.27-1.51 2.27h-1.77l1.51 3.54-1.26 1.51-1.77 4.8 1.77 4.29 2.53 3.29 3.03 1.51-1.52 3.29-1.26 1.01-.51 2.77h2.53l2.02 3.29 1.77-1.01v-3.29l3.79.51.75-5.05 3.79-2.28 3.54-3.53 2.52 1.51v-3.53l2.02-2.27 3.29-2.02 3.03 1.76 4.79-1.26-.25-3.03 3.29-2.02 5.55-1.77 3.03-1.01 1.52-2.02.75-6.31.76-8.34.25-4.29-3.28-.5-1.01-2.02-2.02-9.6-2.52-8.33-4.04-6.32-6.07-6.06-7.82-6.56-4.8-5.06-4.8-5.8-9.34-5.81-4.8-2.53h-4.3l-1.26-3.03 2.02-1.51-.5-4.55-1.52-2.78 2.78-3.53 3.28-5.31 3.79-.75 2.78-1.77 3.79-5.3 4.04-5.56 2.02-5.81 4.04-4.04 3.03-1.51-.51-3.79-1.76-7.83-2.03-2.02v-5.05l1.52-4.3.76-4.29 2.02-2.52 3.53-4.8 3.03-.51.26-3.28.5-4.55 2.02-1.01 3.03-.5 1.27-5.05 2.02-5.3 2.27-3.54-.25-3.03 2.27-.51 1.77 3.54 1.51-1.01 1.77-3.28 1.77-.26 1.26 6.06 4.04.51 3.03-1.26 3.03.75 2.53.26 1.51 1.51 4.26-4.04h2.6l14.9-.21V-20.233l-1041.557-.211z"/><path d="m970.94 404.87-1.6 3.03 1.42 2.15 2.15-1.61-.54-2.32zM957.37 410.22v1.97l2.5 1.61 1.43-1.79-2.14-1.07zM955.23 413.8v1.78l2.32.89v-2.32zM950.23 417.9l-2.32 1.97v2.5l2.14.35 2.32-3.03zM930.05 425.94l-1.43 3.21 2.14.54 2.33-3.22-1.61-.89zM931.3 421.3l-.54 1.42h1.25l.9-1.25zM924.87 418.26v2.68l.89 2.14.18-3.03.9-1.61-.9-1.07zM926.48 412.37l-.72 1.25.9.71zM921.12 380.4v1.79l1.97.53.17-1.42zm63.93 28.4.18 4.82 1.25.35 1.43-2.67-1.61-3.04zM984.16 417.19v2.5l1.25.71.71-1.78-.71-1.61zm-43.75 28.93-3.22 2.68-1.43 3.03 1.08 2.32 3.92-1.43 4.65-2.32 3.03-2.85-.53-2.68-3.4-.9zM984.34 452.19l-.9 2.14 1.97 1.61 1.6-1.43-.17-2.14zm11.6-27.86-1.07 1.43 1.43 1.43 1.79-1.07-.72-1.25zM1005.9 429.15l-4.8 1.43-.3 3.39-3.43.72-1.61 1.61-.35 1.6 3.03.72 3.26 1.6-2.01 1.97 4.11-.36-1.8 3.93 3.6.54zm-16.74 13.93-.18 3.39 1.78 1.43-.17-3.03zM881.66 322.37v1.78h1.6v-1.6zm53.21 331.96 2.68.72-.36 2.32h-3.21l.36-1.97zM943.62 650.05l-1.96 2.32.53 1.78h1.07l.72-2.68zM961.3 638.97l1.79 1.97 1.25-.72-1.08-1.6zM907.55 794.33l7.68 2.86 8.39 1.25 2.68-.89.89-4.29 1.79-1.25 1.43 1.61 1.96 1.43.18 3.39-1.96 1.78-.54 7.5 1.79 5.18 3.03 3.93 2.68 1.25 1.61.18.35 3.04 1.79 2.14.54 5.53-2.5 2.15.35 5-1.25 3.93.54 3.03-1.61 1.07-6.25 3.57-4.64 4.29v2.68l1.96 2.14-40.71 2.68-.36-3.21-.89-2.33-.18-3.39 1.25-1.25 2.5 2.5 3.21 2.5 2.5 1.43 2.15-.36 1.78-1.43.9-3.21-3.04-3.04-1.25-3.57-.71-7.5 1.07-1.6.53-3.04-.71-1.43-.54-6.07-1.96-3.57-1.25-2.5 1.07-1.25.54-11.97 1.07-1.42-.9-3.4-.17-1.78 1.96-1.07 2.32-2.68h1.61l1.07 1.6 2.32-2.14zM920.24 782.87l-.12 1.64h1.13l.38-1.89zM907.74 775.67l.13 1.52 1.64.25 1.01-1.14-1.51-1.01zM919.11 769.36l-.38 1.13.88.51.63-.76zM915.57 749.03l-.5 1.01.12 1.13 1.14-1.26zM911.78 741.96l-.63 1.26.63 1.14 1.39-1.27zM909.01 786.28l-.64 1.39.89.12 1.26-.88zM904.97 781.6l-.26 1.27h1.01l.13-1.14zM317.06 804.71l1.64 2.4 1.64 1.14 1.01-.89.13-2.52-3.29-2.53-1.26 1.01zM312.76 817.21l3.41.51 1.27 1.01-.13 2.4-1.64.63-3.03-2.27zm-53.25-91.99 1.25 3.75-.35 4.83-.72 2.67.18 2.15 1.61.18 2.5-3.4.53-4.28-.89-3.75-1.43-4.11-2.32-.18zM267.73 732.01l.36 4.11-.72 2.14 1.07.36 2.15-1.79-.72-5.18zM275.76 729.69l.54 3.57 2.14 1.07v-2.68l-2.14-3.39zM265.23 723.8v1.78l1.07 2.86 1.61-.18v-2.68zM236.3 741.47l-.71 1.61 1.78.54zm-31.07-2.5-1.07 1.97 1.25 1.43 1.78-1.79-1.43-2.68zM215.59 740.58l-.99 1.7-.89 1.78.98.36 1.34-2.59z"/></g><g class="disputed" style="display:inline;fill-opacity:1;fill:#ededd3;stroke:#0978ab;stroke-width:.5"><path d="m76.224 451.63.631-2.72-.253-.88.316-1.27.632-.18 1.325.5.505-.13-.189-1.89.316-.63-.758-1.2-.06-2.46-.505-1.01.757-.82 1.263-.45 1.642.89.947-.44 1.262.31 1.2.1 2.778.89.694-.63 1.705-1.27-.126-1.26.379-.57.694.45.316-.76.06-3.35.252-.88.884-.32 1.831 1.01 1.326-.5-.253-1.64.316-.57 2.084-.19 1.073-1.83 2.972.63.44-.38 1.26-2.27 1.64-1.39.95-3.73.1-1.45 2.27-1.77.45-.94-.19-1.46.56-1.01 1.71-.94.82-2.09-.63-.44-1.07.1-.95-1.19-.76-.1-.95 1.71-1.83 1.01-.75-.57v-2.72l-.89-1.89-1.2 1.01-.69-.32-.25-1.45-1.84-.63-.31-1.7-.317-1.14.757-.69-.32-.83-.627-.12-.126-.82-1.578.12-.947-.75.442-1.58-.442-.7-1.452-.56-1.579.31-1.01.1-1.389-.44-3.662.7-1.389-1.14-1.389-.38-1.136.25-.821 1.27-2.967.88-1.389-.13-1.263.7-1.325.1-1.389 1.07-1.137.1-1.01.69-.442 1.01-.694-.12-1.453-.95h-.631l-.757.88h-1.666l.456.94 3.104-.32.568.64-1.705 2.96-.568 1.77 1.136 4.23.127 1.58-.19 2.21.695 1.58.252 2.59-.252 1.45 1.01 2.27 2.02.88 3.346 1.46 1.452 1.83.695 1.39 1.894 1.13.758 1.33-.442 2.4-1.2 1.07-3.977.63-.442 2.09.126 2.08.252 2.21-.315 1.7-1.01 3.67.947 3.72zM883.26 721.47l2.33-.71.53-4.82-1.07-4.47 1.25-5.89 3.57-5.71 1.97-6.79 1.07-6.43.71-18.39.72-5.54.89-1.42v-3.75l-1.25-1.43-1.07-2.86 1.78-2.86.72-1.6-1.25-1.43-3.57-.9h-1.61l-1.79-2.14h-2.5l-1.25 1.97.54 2.14-4.29 1.61-3.03 2.5-1.43 3.21-.54 3.93-2.32 2.5-1.61 5.89-1.78 5.18-2.68 6.25-1.43 5.18-.53 5.53.35 5.18 1.43 2.32 2.14 3.22 1.97 5.71 2.5 3.4 3.03 1.25 2.86.71 2.32 3.04 1.43 3.75v2.14zM826.3 673.26l1.96.36-.89 1.43h-1.96zM803.82 761.15l-.63.88h1.52l.5-.75z"/><g style="stroke:none"><path d="m77.49 471.85 1.199-.19 2.336-1.26 1.547-3.03-1.547-5.18 1.168-2.52-.6-1.77-2.178-.95-.537 1.45-.789.98-.284.89.505.85.821.35.568 1.92-.536 1.3-.663.41.473.97.03.89-.663 1.51.252.89-.883 1.07zM62.088 475.82l-1.263.38.09 1.7.789-.22 1.231 2.09 1.358 2.27.378 1.92 1.074-1.35-.62-1.6-2.032-2.54zm2.841 21.43.915 1.87.06 1.8.536 1.1 2.967 1.23h1.295l1.041.1-2.178-7.29-1.673-.44-1.894 1.33zm22.704 18.34-1.01-1.77-1.452.1-.978-1.1-.19 1.45-.09.94 1.042.41.884 1.17z"/></g><path stroke="none" d="m300.72 635.09 3.84.13 3.88-.71 2.99-.98 2.73 2.05 3.39.14 3.48.75 3.4-.44 1.69.31.98-.27 4.2-.8 2.37-.58.76-3.35 3.08-2.86 2.72-1.65 2.86-3.08 4.01-.76 6.83-1.38 3-1.88 2.5-.62 2.09-1.25 2.1-.81 1.25-3.48 11.43-3.52.63 1.38 1.65 1.07h2.77l1.74-.72 1.29 2.15 1.43.22.45-.49 3.52 2.85 3.93 3.26 2.81 1.07 1.39 1.57.13 1.34 6.83-4.42.58-1.88-.62-2.5.62-1.96-1.78-.14-3.17-3.08-1.74.18-.85.49-1.12-.44-1.03-.63-1.38.18-1.96-1.52-2.15-.85-2.41.9-1.69 1.16-2.06-1.61 1.79-.85-.18-1.11.45-1.12 2.01-.94.17-1.25 2.37-1.2.1-2.01-1.12-1.7-.8-1.78.36-1.66h-.99l-2.81 1.12-1.96 1.74h-.98l.1-2.15-.18-1.25 4.1-2 1.08-1.79-.67-.71-2.15.66-1.38-1.25-1.79-3.43-9.51 3.97-1.2 2.68-2.46 1.74-2.99-.54-.94-1.2-7.45-2.32-.31-.94-2.55-2.5-1.87 1.7-1.57.62-2.9 1.12-1.43 1.11-2.27 2.19-1.92.31-.14 2.1-6.65 3.22-7.72.13-1.92.67-1.56 4.51-6.61 4.42-.85-.45-2.59 2.1.98 1.38-.84 1.7-5 2.23h-2.64l-.85-1.16-.71.85-2.46.1-1.56 1.25-2.19-.1-4.95-1.74-1.83 3.93.98 2.81 1.92 2.01 4.55.23 1.52 1.6-.22 1.97-1.83 2.32v2.14l1.16.9.63 2.27z" style="stroke:none"/></g><g style="fill-opacity:1;stroke:#800;fill:#fefee4"><path d="m770 26.125 19.69-6.906 7.22-2.313 16.68 5.719L819 20.25l8.31 2.562 6.78 5.625 1 2.5 4.94 3.469 3.69 6.188.97 4.062 10.09 12.906.47 4.188 9.19 9.156 1.15 7.344 3.94 2.187.28 5.563 6.13 6.437 6.65-.187 5.78-3.469 8.47 3.938 3.69-1.844 14.72 7.937 5.72-1.25 1.4 5.878 5.54 6.25-1.07 4.5 5.5 4.72 1.6 2.4 6.97-2.59 5-.44 10.15-4.53 1.41-4.44 6.15-6.9 4.16-.47 2.78-4.128 7.81-6.875 6.04.938.1 7.25 4.56 4.965-1.47 6.88-3.69 2.69 1.57 16.65-.6 3.31 1.63 6.1-1.6 3.37-1 13.57-2.93 3.09 1.06 9.12-1.75 1.1-14.56.4-3.19-1.62-4.22 9.62-5.59 3.72.1 1.44 9.25 14.81.72 10.6 1.31 2.03-4.5 2.06-4.87-2.62-3.16-.52-3.31-5.86-3.38 3.14-2.87-2.37-2.06.47-.33 3.82-4.58 1.3-2.88 2.09.68 3.24-1.3 2.44-3.92.7-3.89-4.69-.25-1.31-3.69-1-3.8-4.24-.72-6.09-1.82-2.08-3.77-.1-.62 2.77 2.07 7.09-.61 1.99-2.57 1.19-6.64-6.41-.66-3.48-2.86-1.35-1.7 1.22-2.58.55-2.56-3 .96-2.92-3.26-4.58h-3.09l-2.46-1.66-2.2.27-3.36 3.79-6.22-.53-2.64-1.54-.1-2.41-1.33-1.14-2.89.48-1.85 2.99-3.82.53-2.43-1.77-1.93 1.74-3.75 1.86-2.77-.77-6.25-4.92-2.31-4.72.39-2.03-1.8-2.72-2.19-1.45-5.67 1.98-3.25.33-2.11 1.03-2.45-.44-.67-1.4.7-2.81-.87-2.13.84-1.53 4.5-.23 1.98-1.65.79-2.39-.68-1.53-.86 1.96-1.98.51-3.97-.69-1.67-.89-4.03-4.06-2.33-.51-4.19-4.43.6-4.11 8.47-8.29.81-3.71 3.2-3.03 6.7-11.68 1.61-1.04 1.11.32 1.78 4.01 2.16 2.13.63-1-.13-2.78-.75-1.83-.44-8.13 1.46-8.79 1.46-.82 2.63-.39 1.06-6.03-3.08-4.764.46-2.703-1.1-2.937-.62-5.938 2.12-1.516.21-4.406 3.51-4.219v-2.562l-1.54-1.516.12-2.156 1.95-2.328.47-2.391-1.28-3.328-2.56-.359-7.89-8.11-5.19-.14-1.67 4.828-1.63 2.859-3.84.09-1.75 1.969-3.34-.438-1.61 1.297-2.05.172-1.63 3.172-2.01-.156-1.81-1.313-1.75 1.141-3.11-.36-3.85-2.64-3.78-6.297v-3.516l-2.01-3.922-.1-1.625.37-1.437-.98-.953-2.8-.485-2.53-3.031-1.65-.844-1.71.813-.18 3.484-1.77 1.578-1.72.09-2-2.453-3.09-.641-4.57-2.14.33-1.75 4.69-6.906.89-3-1.37-2.266z" class="main"/><path d="m824.59 181.91 2.32-1.25 3.25-.13 5.5-2.09 1.93 1.15 2.16 2.94-.63 2.09 2.54 4.88 6.07 4.78 2.61.89 3.96-1.89 1.75-1.7 2.97 1.83 3.54-.57 1.85-3.11 2.79-.46 1.39 1.01v2.3l2.58 1.81 6.14.39 3.37-3.64 2.05-.28 2.81 1.69 3.1-.1 3.26 4.28-.95 2.89 2.31 3.09 3.1-.48 1.37-1.16 2.77 1.27.5 3.26 6.64 6.96 2.65-1.27.88-2.01-2.2-7.22.43-2.63 3.85.1 1.82 1.83.88 6.2 3.58 4.33 3.81.78.38 1.55 3.76 4.7 3.86-.75 1.41-2.31-.63-3.19 2.61-2.34 4.74-1.13.35-3.84 2.24-.42 2.58 2.21 3.51-2.87 3.39 5.67 3.13.6 4.78 2.46 5.83-2.43v8.76l-2.89 6.89-4.99 3.13-.37 2.23 1.47 1.71-2.89.26-6.39-6.33-3.16 1.35-.39 12.62-6.27 2.97-.4 5.34-6.55 4.91-8.12 1.45-1.19 3.21 5.47 6.45-.64 4.09-15.21 1.41-5.81-4.53-5.97 3.94-.36 8.07-7.29 12.21-2.1.62-1.5-2.22.88-2.59-.32-4.22-4.68-4.37-2.5-3.29-1.69-.37-2.03-4.16 1.78-4.75-.28-2.28-2.47-.31-5.81-7.66-2.16-1.18-.41-2.41-2.28-1.44-.68-4.19-1.32-1.15-1.9 1.59-1.03 3.44-2.1 1.31-1.19-1.22-.1-2.81-2.97-3.19-4.53-1.28-3.9-2.06-.85.59-.1 2.25-5.06-1.47-1.04-.9-.1-1.66 1.56-1.28v-.97l-2.5-5.59-2.22-1.72-.16-2.97-1.16-.56-3.09-4.22-.62-1.97-1.13.34-8.47 7.54-2 .9-2.94-1.65 1.35-1.97-1.22-2.44-3.59-3.28-1.32-6.25-.75-1.91.57-2 1.93-1.72.35-2.93-2-2.41-2.66-1.09-1.19-2.82-1.43-.97-2.35.5-1.06-1.12.87-2.38v-3.28l3.16-.59 4.5 2.94 1.06-1.69 1.1-.5 2.03 1 1.75 1.84 1.34.1.84-1.69-.12-3.25-.78-1.66.37-1.97 2.44-.5 1.13-1.06z" class="main"/><path d="m798.71 329.04-2.05-1.07-.75-3.31-2.85-2.07-.97-3.78-5.34-.62-1.78-2.22-3.13.28-3.25-3.59 1.91-2.19-.16-2.94 2.5-2.59-.12-1.75 2.37-2.72.44-2.88-2.28-3.03-.66-3.12v-7.1l-1.93-2.03-.19-1.75 3.41-3.28 2.96 2.69h3l.1 1.81 3.69 4.1 1.37 3.37 1 .47.81-2.78 3.94-5.19 1.28-2.31 3.91-3.44 3.5-.59 4.15-6.1 1.88-.97 3 .66 2.94-1.75-.28-3.25 1.78-1.03 2.47-.44 2.25.53 1.78-1.4-1.47-2 .4-1.44h3.5l2.6 1.69 5.59-2.66.63-3.25 1.47-2 4.21-2.62 1.04-8.53.71-.35 3.97 2.13 4.6 1.03 3.03 3.31-.16 3.06 1.1.94 2.34-1.16.87-3.62 2.1-1.47 1.19 1.03.65 4.25 2.16 1.56.72 2.29 2.22 1.34 5.37 7.47 2.63.34.15 2.03-1.47 4.85 1.75 4.28 1.75.34 3.19 3.94 4.22 3.91.12 3.93-.9 2.5 1.4 2.82-3.15 4.46-5.69 3.41-1.94 3.59-1.84 1.19-5.13 7.06-.53 4.94-2.79 2.39-1.38.84-5.46.5-2.1 2.09-4.65.83-1.12 2.45-2.46.24-5.38 4.42-7.6 6.85-1.78 4.06-2.22 2.47-4.05 2.78-3.54 4.06-3.83 3.1-1.27-1.49.93-3.5 2.24-.24 1.03-2.08 2.81-1.53.54-2.64 1.65-4.71-3.86 1.1-1.93-1.68-3.18-1.82 2.01-1.12.25-5.1 1.7-1.94 4.08-3.06 1.3-3.89 3.59-8.21-2.92-2.12-5.07-5.09-3.21-.8-3.57 2.04-5.06.25-3.43 2.11-.51 3.31-1.47 1.48-3.84 5.38-.25 5-2.94 1.95z" class="main"/><path d="m845.94 336.83 2.15-.18-.54 1.43h-1.79z" style="stroke:#0978ab;stroke-width:.5"/><path d="m420.75 295.25 2.56-.56 27.69 4.06 16.31-2.44 26.44 4.44 5.75 7.06 14.37 3 12.69 4.38 12.25-.69 1.19 4 5.75 1.62 13.19-9.68 16.43-7.69 7-1.63 2-2.31h3l5.44 1.06 4.56-1.62 21-1.75 8.32-4.31 7-3.57 10.18-14.37 7.69-3.75 2.44-2.94 3.94-3.12-.25-1.75-9.94-11.32 5.81-15.93 10.06-.57 2.94 3.38 15 .56 11.63-10 2.87-6.37 15.19-1.5 9-10.07-.69-2.81 2.81-7.19 4.69-5.18 7.44-.69 2.31-4.69 3.5.81 8.56-6.18 10.32-1.07 6.43 1.13 5.19-1.56 2.25-3.69.1-1.5-4.81-7.19-9.44-6.19-2.43-4.25-4-.25-6.19-3.75-10.81 1.63-4.38 8-5.81-3.25-12.94 2.44-2.44 3.62-5.43-3.37-2.69-6.25 4.06-3.32.44-8.43 2.31-3.32-.69-3.31 6.5-22.25 4.5 2.31 12.57 2.07 3.18-1.57 7.25-9.37 7.19-2.13 2.69-4.12-3.19-6.313.81-3.937 1.94-3.813 5.31-21.625 6.5-7.75.44-7.687L761.16 52l.19-2.75-1.62-1.875-3.69-.375-4.13.812.1-4.937 3.12-2.813 3.94-7.687 10.62-6.25 5.47 6.437-1.06 3.407-4.62 6.562-.32 1.688 4.91 2.281 2.72.375 2.06 2.562 1.63.219 1.71-1.844.35-3.187 1.47-1.063 1.93.907 2.91 3.156 2.5.25.97.812-.38 1.844.13 1.938 1.78 3.437v3.875l3.97 5.688 3.72 2.937 3.31.25 1.81-1.156 2 1.5 1.6-.219 1.34-2.75 2.38-.437 1.62-1.438 3.03.719 1.85-1.938 3.87-.375 2.19-3.812 1-3.5 2.59-.531 3.41.875 7.34 7.687 2.44.5 1.38 3.094-.57 2.5-2.03 2.25v2.312l1.34 1.532.16 2.312-3.59 4.156-.19 4.657-2.06 1.312.68 6.344 1 2.719-.4 2.625 3 4.626-.6 5.65-.87.85-2.44.12-1.44 1.03-1.09 9.69.47 7.13.81 2.37-.19 2.35-.59 1-2-2.19-1.81-4.22-1.44-.25-1.09.75-7.44 12.56-2.59 2.38-.97 4.15-8.35 7.57-.65 4.28 4.06 4.62 2.34.44 3.94 4.03 2.69 1.16 4.31.31 1.06-.63.85-1.84.56 1.63-1 2.78-2 1.18-4.28.35-1 1.44 1.06 1.9-.84 2.69.72 1.87 2.28.47.1 2.19-1.12 1.25-2.44.41-.25 1.97.78 1.68v3.41l-.69 1.5-1.25-.1-1.84-1.97-2.13-1.16-1.22.63-.68 1.65-4.44-2.65-3.13.22-.25 3.59-.81 2.22 1 1.34 2.63-.5 1.06.88 1.5 3 2.72.84 1.31 2.16v3.43l-1.88 1.25-.46 1.79 2.21 8.84 3.66 3.06.94 2.22-1.31 1.88 2.84 2.06 1.94-.85 8.53-7.96h1.15l.75 1.9 3.54 4.63.53.56.25 2.47 2.22 1.84 2.43 5.66-.18.94-1.16.96v2.38l5.88 2.03-.66 5.75-5.28 3.66-1.41 4.37-5.5 2.72-2.37-1.75-3.38-.1-.4 1.34 1.06 2.13-1.56 1.53-2.07-.85-3.12.57-1.19 1.18.34 3.07-3.03 1.93-3.09-1-1.84 1.44-4.22 5.94-3.53.47-3.91 3.44-6.22 10.21-.75-.37-1.5-3.28-3.5-4.13-.25-2-2.69.1-3.18-2.44-3.5 2.97.43 1.81 1.63 2.16.56 9.87 2.41 3.35-.32 3.06-2.53 2.31-1.12-.53-2.25.25-1.81 1.03-8.5-.19-1.25-1.37-.41-2.97-4.19-4.66.97-1.84-.34-3.34-4.32-3.29-1.59-3.9-3.94-4.44-2.25.22-3.65 3.34h-2.91l-4.12 2.97-.47 1.56 1.28 2.88-.16 4.62-1.47 1.25h-4.06l-2.09-.87-2.25 1.78-.63 1.5-2.56 1.19-2.47-.79-1.91.6-6 5.5-1.56 2.62-1.75.41-3.31-.16-1.19-1.15-.19-7.5-2.15-3-4.6.12-1.78 3.91-2.5 3.62-.12 4.47-1.19 1.6-1.91 2.09-.56 3.47 1.56 2.37-1.93 2.85 2.5 2.53 3.59 5.34-2.91 4.72-3.87 2-3.56 2.75-2.41.22-2.97-1.56-2.09.68-1.69 1.66-1.25 2.25-2.06 1.38-5.1-1.85-2.09.94-2.94 5.91-2.59 7.37-2.66 1.75-3.93-.44-1.13 1.35-.87 2.75-2.22 1.75-1.85-.19-2.03-2.78-3.87 3.9-1.5 2.19-.88.53-2.47-1.59-4.31 1.12-.25-1.53-.87-.34-1.63 3.53-3.94 4.16-.59 5.47 1.31 1.59-.28 2.06-1.19 1.06-4.12 1.04-1.38 2.87-2.22 1.97-2.84 4.72-2.75 2.34-1.81 4-1.81 4.75-1.6 1.44-4.44.19-2.84-3.78-1.44.1-1.53 1.65-4.31.1-4.75 1.12-.63-4.34-1.96-2.91-3.57-1.72-3.9.16-4.66-1.56-2.16-1.81.1-1.19 6.75-15.5-3.47-2.5-.22-3.94h-3.13l-2.56 1.81-2.25.19-1.09 2.22-3.47 2.44-.13 3.37-3.34 5.09.53 10.47-8.65 7.57-3.29 4.96-2.75 2.13-4.28.81-2.87.1-2.38 1.78-3.47.18-5.31-1.93-.56-2.22-3.16-1.1-2.53-1.65-.31-4.91 1.19-1.5.72-2.72-.22-3.5 5.28-1.59 1.9-2 .19-4.69-.69-2.59 2.47-3.16-.59-4.5-5.69-4.78-2.03-.91-6.84.32-1.63 1.18-7.34 7.44-8.38 3.28-11.81.28-5.31-1.53-1.53-1.31-3.25-.53-2.57-1.94-.65-4.5.94-2.44-.82-1.59-7.47-.5-2.15-3.37-4.97-2.16-3.78-3.63.19-1.34 2.28-1.97 2.34-3.47 6.34-4.28.69-2.75-.97-4.5-5.06-3.34H447.7l-2.68 1.12-5.54 5.66-3.65.44-2.5-1.78-2.6-3.82-4.53-4.31-5.65-12.16.1-4.12 2.56-6.59-2.53-4.32z" class="main"/><path d="m540.21 409.06 1.07-1.04h3.66l3.49-.82 3.23-2.12 3.23-5.24 8.43-7.14-.43-10.63 3.41-5.2-.14-3.13 2.55-2.08 1-.39 1.12-2.23 2.11-.36 2.62-1.87 3.13.11.36 3.74 3.05 2.58-.4 2.23-5.96 13.06-.14 1.76 2.41 1.83 4.37 1.51 3.88-.25 3.77 1.54 1.94 3.09.57 4.02-.93.72-2.15 2.87-.94 5.1 1.26 3.01-.47 1.65-2.83.33-3.05.82-2.48-2.08h-2.01l-1.62 6.25 1.51 2.44-.57 1.51-2.3.79-.47 5.38 1.37 3.84 7.32 3.34.61 3.09-1.01 2.33-.64 3.2-2.23.97-2.55-.69-1.61.83-.36 6.96-.86 1.22-2.51.26-2.95-2.12-3.87-.18-2.45-5.57-5.88-1.54-2.37-3.19.18-1.98 1.94-2.87.14-4.09-2.33-2.8-1.37-4.17-.46-5.42-1.48-1.76-4.02-3.12-1.65-3.05-2.8-.14.25-2.23-1.54-2.01z" class="main"/><path d="m405.21 291.55 15.31 3.99.17 8.65 2.31 3.96-.55 2.29-2.14 4.69.11 4.19 2.43 5.25 3.45 6.63 4.42 4.34 2.31 3.91 2.72 1.55 3.73-.26 5.23-5.38 2.74-1.5 17.11.11 4.82 3.14 1.04 4.85-.48 2.51-6.35 4.32-2.89 4.06-1.8 1.32-.23 1.27 3.75 3.86 5.11 1.93 1.82 3.47 7.57.46 1.04 1.35-.86 2.33.17 4.67 2.87 2.16 3.28.63 1.85 1.55 4.8 1.2 12.08-.31 8.12-3.35 9.04-8.58 7.03-.18 3.5 2.14 3.96 3.57.61 4.32-2.34 3.22.74 3.2-.35 4.01-1.6 2.11-5.11 1.04-.55 5.46-1.5 3.42.28 4.7 5.78 2.46.61 2.13 5.59 2.01 3.17-.38.74-.61 2.13.89 1.75 1.65v2.33l2.53.26 1.93 3.17 5.36 4.37.38 5.76 1.42 4.34 2.51 2.46-.35 4.21-1.91 2.95v2.05l1.93 3.05 6.32 1.65.69 2.49 1.4 2.97 4.11.17 3.2 2.26 2.33-.58.69-1.17.38-6.62 1.77-1.12 2.52.69 1.95-.79.66-3.53 1.12-2.08-.38-2.87-7.57-3.68-1.44-3.91.43-5.1 2.08-.84.96-1.32-1.65-2.76 1.53-6.02 2.21-.1 2.56 1.98 5.79-.91.58 2.91 1.07 1.83 2.25.56.74.61 6.73 1.93 3.65 3.58 2.39-.84 8.78 5.2.28 7.62-3.22 3.02.25 4.69 2.03 2.8-.56 4.79-1.95 1.27-5.66-.28-2.82 1.5-3.25-1.29-1.06.23-.1 3.57 1.7 2.62-11.22 2.41-3.55-3.12-3-.33-5.2.94-.86 2.43.99 2.14-.46 2.94-2.79 2.64.15 1.4 3.83 1.42 2.06 1.72.23 1.76-1.37 1.62-3.05 6.35 1.24 1.75-.28 4.31.66 1.09-.5 1.04-2.21-.33-5.79.54-3.1 1.62-1.39 2.21 2.89 1.42 1.14 2.82-.76 3.81-4.03 3.83-4.09.1-1.12 1.01-.1 4.09-5.41 2.74-2.81-1.65-1.55.28-1.52-.97-4.19-.2-3.56-3.83.1-4.01-1.93-3.4-1.14-3.94-1.32.1-3.91 2.82h-2.01l-6.82-6.12-1.5-4.39-4.01-1.19-1.47-3.2.58-5.38-1.37-.43-1.14-.99-2.19.3-4.44 2.21-4.62 1.17-3.02 2.46.26 3.48.61 1.8-7.54-.2-2.09-4.93-4.41-2.33-7.54-.26-2.23-1.75.3-6.47 2.84-.56 5.13 4.44 5.51 1.3 2.21-.64 2.18-3.93-.79-3.48-.1-7.28 3.45-1.32 4.29-2.85.84-2.2-1.91-2.97 1.02-2.54 2.1-.89 1.83-3.76 2.87 1.63 4.14-6.93.4-4.95.97-2.79-2.39-2.52-.91-3.91-2.97-1.37-.25-5.07-2.72-2.49-.58-4.88-1.63-2.51-.94-3.83-4.14-3.25-.58-3.1h-1.18l-3.52 2.25-5.5-2.27-6.02-4.01-.94-2.43-4.87-4.47-3.1-1.46-3.06-2.9-3.15-1.77-1.43 3.74-2.78-.56-8.79-10.12-1.93-.31-3.81-4.42-5.99-2.05-2.72 2.39-2.94-2.36-4.93 4.8-3.95-2.92-1.87-2.5-12.22-3.71-2.27 1.94 1.51 3.97-.13 4.43-3.78 5.13-.82 5.53-3.58.58-3.33 1.58-4.91-2.96-5.92.36-10.16-3.6-10.72 1.68-4.1-8.4-6.84.36-1.65-4.01-9.25.69-2.63-5.6-8.39-3.89 4.66-3.42 1.47-4.69.39-13.24 2.13-9.38 7.42.45 4.34-3.41 1.21-3.27 6.36-6.56 7.23-5.03 3.63-4.39 7.72-3.5 3.83-1.3 3.56-2.51 8.52-1.01 5.41-4.52-.94-4.27z" class="main"/><path d="m280.84 422.12 1.16.1 7.56 3.65h3.6l4.37-2.34 5.06-1.09.75-1.94-.9-1.03-4.72-.22-1.06-6.25 3.06-2.78 3.31-.91 2.41-1.84-.19-3.97 2.5-2.25-.25-1.28-13.97-10.66-.22-12.56 8.6-5.53 11.93-.19 12.16-1.72 6.47-3.37 11.47 5.46 2.62 5.5 9.41-.59 1.69 3.91 6.71-.35 4.1 8.38 10.75-1.69 10.25 3.66 6.06-.44 4.78 3.09 3.16-1.5 3.9-.59.6-5.78 3.78-5.1.1-4.37-1.34-4 2.19-1.94 12.21 3.56 1.88 2.54 4.06 3.25 4.94-5.07 2.53 2.47 2.84-2.47 6.29 2.25 3.96 4.57 1.85.12 8.56 10.06 2.88.28 1.4-3.46 3.1 1.62 3.46 3.19 3 1.56 4.88 4.34.72 2.35 5.53 3.87 1.22-.1 4.78 2.53 3.5-2.25 1.31.16.28 2.62 4 3.35 1.32 3.87 1.68 2.56.5 4.85 2.63 2.59.37 5.13 2.72 1.43 1.03 3.69 2.32 2.66-.97 3.06-.35 5.13-4.22 6.46-2.78-1.62-1.5 3.69-2.28.93-1.09 2.35 1.59 3.25-.56 2.19-4 2.71-3.84 1.22v7.19l.81 3.59-1.72 4.04-2.94.81-5.37-1.6-4.63-4.21-2.78.15-.62 6.6 2.09 1.9 7.19.31 4.84 2.5 2.41 4.72 3.81.41h3.78l.75 2.16 1.78 1 .38 2.31-1.69 3.37-.44 3.38-2.19.4-2.25-2.15-2.53.1-3.59 3.5-1.47-.1-1.28-2.53-1.81-2.22h-2.22l-5.66 3.22-1.97 3.68.44 3.44-1.69 2.97-2.43-.12-2.35.56-3.84-.6-1.13-1.5-8.34-9.18-1.34-3.22-4.04-.1-4.34 3.46-1.97-1.5-2.47-.4-4.68-2.94-2.47-.97-3.53 1.03-2.47-.81-4.19.78-3.31-1.12-5.25 1.5-4.44 2.97-.34 2.21 1.46 2.22-1.25 2.35-6.75 2.03-.43 2.03.9 1.09.13 3-1.85 1.82-.59 3.15-8.34 11.16-1.38.81-4.65-2.84-2.22.1-1.94 1.59-2.63-.31-3.96-3-4.41-.94-1.63-6.93-2.46-.69-5.6-4.03-1.9-3.66-3.54-1.84-7.84-.6-1.47-.75-13.69-.37-4.56-2.88-5.31.16-1.47-2.34-2.31-.1-2.69 1.47-4.84-1.87-4.32-4.54-5.06-2.78-3.75-.31-3.4-1.75-3.91-.84-2.75-1.69-9-.84-1.94-5.94-1.78-3.72-2.97-4-.78-4.78-3.66-4.63-1.37-2.87-.63-2.53.94-3.03-1.47-1.41-.34-2.5.75-1.91 5.16-.34 1.34-3.5-1.69-2.31 2.38-7.88 2.72-4.53.4-5.12-1.09-1.66-4.31-.81.18-1.63 4.97-2.4z" class="main"/><path d="m286.25 133.87-.63 3.44-1.81 3.31 3.31 4.69-.12 3.13 7.06 4.75 4.31 10 5.13.81 2.62-1.69 5.69 5.88 3.38-.44 4.56 7.75 2 8.69 5.81 11.06-.81 5.06-2.56 3.81 1.5 5.82-6.75 9.81-.38 6.5 2.13 2.25 19.68 7.19 13.44.56 8 2.44 6.81 6.62 9.19 5.63 2.5 2.87 4.56 2 5.38.88-.94 3.75 3.56 2.43 5.38 18 6 7.32.94 3.12-2.38 6.19.99 4.05-5.61 4.68-8.57 1.02-3.5 2.43-4.9 1.64-6.67 3.31-3.81 4.47-6.89 4.77-6.45 6.58-1.5 3.45-4.47 3.27-7.33-.44-2.04 9.54-.35 12.6-1.41 5.13-4.56 3.36-3.31-1.33-6.06 3-12.55 1.95-11.97.31-8.4 5.26.1 12.81 13.57 10.48.83 1.32-2.6 2.35.22 3.84-2.43 1.9-3.23 1.11-3.49 2.47 1.37 6.32 4.6.49.84.88-.62 1.81-5.08 1.24-4.11 2.03-3.72.31-7.2-3.75-5.83-.36-6.06.53-6.67-3.97-2.34-.4-6.77-4.2-6.63-1.5-7.99-.58-5.48 3.1-10.08-.1-7.07 1.23-12.42 7.16-1.46.23-6.85-2.21-18.25 4.86-2.3-1.64-6.14-.53-6.85-6.14-3.94-.58-2.51-1.72-5.71.22-2.51-2.21-2.44.13-4.5 1.99-4.64 6.85-5.48.8-2.96-4.38-4.78-1.85-2.56.93-8.49-3.98-2.82-2.92-3.32 5.17-3.84 2.79v2.87l-3.05.57.62 4.86-4.818 5.4-5.171-2.39-3.138.62-2.474-.75-3.403.62-2.077-1.33-2.873-3.8-4.817-2.3-1.017-2.03-.09-3.76-.796-2.25.31-2.96-1.282-4.82 2.431-5.48-3.536.88-11.755-4.59-7.292-5.44-2.299-3.76-5.082-1.37-2.917-7.07 1.503-3.58-.398-9.06-2.43-2.82-3.492-.31-.84-4.38-3.977-2.65-3.491-.27-6.232-3.58-.353-3.75 11.888.1.663-2.61-1.503-3.54 1.768-9.19-1.193-4.51 2.342-4.46.133-1.99-6.983-5.35-4.994-.92-2.475 2.07-2.121-4.28.751-4.6 2.519-1.81-1.944-5.48 1.502-4.86 4.508-.45 1.547-2.91-.486-3.41 1.414-3 4.287-2.21 4.861 1.06 2.696-1.55 5.701-.92 1.282-3.54 6.187 3 6.01-2.12 1.061 3.45v3.67l2.298 1.06 3.491-1.41 4.42 1.63 4.331-2.65 7.424-9.06 3.492.18 7.027 2.96 6.938.26 2.784 1.24 8.8-7.2 13.56-4.25 4.69-.13 5.7-1.86 2.21-1.14 3.8.7 1.68-.97 1.68-8.97-.22-3.01 2.69-3.62 3.94-.84-.71-3.4 6.5-2.12-.1-1.95-.93-1.94 1.41-4.33-2.96-13.84 1.06-1.81.62-7.03 2.83-4.15-3.09-2.7-3.67-.61-.97-1.51 3.36-2.52 15.33-.7 10.52-1.33 3.49 4.95 5.57-.31 2.87 2.34 2.65-.92 1.24-4.87-4.11-3.75 4.73-9.55.93-2.87 10.03-16.18 2.21-5.87 3.14.79 8.97 6.54 11 1.28 2.74 4.25.98-.1 5.03-2.57 5.44-.57 3.67-4.38-1.73-5.52 1.2-9.5 4.73-10.17 6.63 1.02 7.6-3.09 2.3-4.47.48-5.17 6.67-1.41 4.16 2.3 2.56-1.33z" class="main"/><path d="m70.291 403.06 2.497-2.32 5.171-1.96.906-.64 4.132-.75.95-1.18 1.348-.81 2.541 2.03 3.469-.6 2.254.33 2.519-.37.928 2.96.994.66 2.52-.1-.8 2.57.53 1.79 1.84.93.22 1.7.77.48 2.12-.55.1 3.03.16 1.19.92.66 2.21-2.25 1.06-.29.53 1.26-3.62 5.04-3.62 2.92-.25 2.91-2.96.47.67 4.82-4.807 5.56-5.125-2.31-3.313.56-2-.94-3.437.57-2.688-1.57-2.187-3-5.188-2.93-1.062-1.88.06-2.37-.5-6.44-1.312-5.06z" style="fill:#ededd3"/><path d="m95.415 432.67 4.905-5.43-.75-4.95 3.14-.66.17-2.61 3.8-3.23 2.57-3.89.35-1.15 3.36 3.01 8.31 4.11 2.96-.88 4.55 1.72 2.7 4.37 5.39-.84 4.33-6.45 5.13-2.21h2.21l2.87 2.08 5.26-.18 2.69 1.64 4.03.57 6.67 5.88 6.32.75 2.25 1.5 15.56-3.66 2.39-1.02 7.33 2.12 1.86-.44 11.53-6.98 6.76-1.2 10.66.18 5.12-2.96 7.78.35 7.07 1.64 6.76 4.06 2.48.58 6.49 3.89 6.1-.67 3.98.4-.35 3.67-4.86 2.12-.14 1.77 4.25.97 1.06 1.46-.14 5.08-2.74 4.24-2.52 8.09 1.64 2.34-1.15 3.54-5.04.44-1.15 1.55.62 3 1.42 1.24-1.24 3.58.66 1.99 3.27 5.3 2.08 2.35.66 4.46 3.54 4.9 3.09 9.02 8.97.84 2.79 1.72 3.75.71 3.23 1.72 4.29.4 4.59 2.52 4.6 5 4.99 1.63 2.74-1.41 2.48.17 1.28 2.26 5.08.1 5 2.74 13.17.22 1.72.88 7.82.57 3.49 1.77 1.95 3.54 5.17 3.84 2.83 1.06 1.54 6.9 4.03.88 4.15 2.92 2.65.44 2.39-1.81 2.07.22 4.56 2.7 1.41-.67 8.4-11.49.35-2.65 2.03-1.94-.1-3.05-.93-1.29.44-2.12 3.71-.92 2.87 3.35 3.14 2.17 5.26 1.41 4.2 3.14.49 3.8 2.74 3.18.39 6.1 2.92 3.94 4.46 4.42-.31 1.54-2.38 1.77-1.73.13.36 2.35 2.52 3 1.06 4.51 1.59 1.5.35 12.99 1.06 2.79-.22 4.06-.62 1.11 1.02 11.71-1.9-.13-1.68 1.37-.26 3.22-1.99 2.43-2.88.89.53 3.49-1.28 2.65.67 1.42-.14 5.52-3.58 1.68-2.78-1.86-4.2 3.54-1.9-2.87-3.01-.58-2.38-3.49-2.56-.49-5.66 5.66-3.71-3.67-2.61 1.06-2.08-1.01-2.12.13-3.31-2.43-3.98 1.55-1.73-1.2 1.6-3.27 4.55-3.58-.14-1.46-2.6-4.86-2.7.8-2.38 2.12-.84-3.98 3.58-1.59 1.14-2.21-3.27-.88-2.21-3.45-9.5 3.8-1.9 3.49-1.63.84-3.14-.57-4.16-2.26-4.37-1.37-2.08-3.31-2.3 1.72-2.96 1.15-5.21 3.85-2.43.39.13 1.99-7.2 3.76-7.03-.27-2.3.93-1.5 4.42-4.42 2.92-4.82 3.18-.17 3.23-4.69 1.85-6.94.1-1.72.97-2.61-.17-8.7-4.11-3.41-2.83-7.51-.13-4.64-1.37-4.69-5.88-6.67-2.04-10.43 4.34-6.89 5.96-4.02 5.53-2.97 1.68-2.07-3.5 3.31-6.93-.62-3.41-2.91-2.74-2.79.4-7.91 2.34-9.32 1.55-3.8-2.3-3.89 1.46-10.79-8.84-4.86 2.79-2.56-.31-2.43-3.94-4.16 2.61-1.54-4.33-6.1-4.99-5.88-.76-1.46-4.95 1.46-1.94-1.1-1.46-4.6 1.11-5.22-4.16-7.24-3.31.79-6.59-1.06-4.37-2.52-1.11-3.4 4.47-1.99.44-4.24-4.91-.44-5.7-6.15-6.5-2.25-1.06-3.71-5.83-4.42-1.81-3.49-4.11-6.5-3.36-.88-3.89-10.88 7.07-1.59-5.21-3.135-2.17-2.121-3.58-7.292-6.14 1.812-1.77-1.282-1.46-1.989-.48-3.182-4.42-3.314-1.33-3.669-.22-3.535-4.64-2.166-7.91-5.656 1.63-.663-3.66 1.767-3.36-.883-3.14 1.988-5.61-3.8-6.85.751-2.12-.221-2.44 1.061-1.72 4.817.13.309 3.63 2.563 2.47 5.304-1.59 3.977-.84 2.652-3.84-1.591-4.6 1.149-3.53-5.745-4.69-1.37-3.45-.631-1.77 1.326-5.05v-3.02l-.379-3.91.379-1.39 1.326-.44 2.651-.38 1.515-1.33.379-1.83-.568-1.58 3.337-.68 2.232.77 3.071-.44 2.707 1.245z" class="main"/><g style="fill:#ededd3"><path d="M102.99 421.85v-2.86l3.68-2.7 3.35-5.13 1.69 1.63-.73.88-1.65 3.67-1.43 1.04-1.87 5-3.52 4.93-1.98-.8-.64-4.97zM75.188 449.96l-.631-1.77 1.826-5.05v-1.52l-.379-3.91.379-1.39 1.326-.44 2.651-.38 1.515-1.33.379-1.83-.568-1.58 3.337-.68 2.232.77 3.071-.44 2.707 1.245-.309 4.38-.486 1.23-.708-.13-.132 1.64-.663.7-1.679 1.11-4.641-1.15-1.414.44-1.724-.88-1.458.62-.177 1.5.04 2.34.973 1.55-.221 2.34-2.298-.22-.486 1.9-.663 2.56z"/></g><path d="m410.78 511.47 2.34-.6 1-2.59-1.31-2.12.41-1.97 4.81-3.5 4.91-1.19 2.9 1.03 4.6-.75 2.5.78 4.25-.87 6.62 3.75 2.03.47 1.97 1.4 4.53-3.34h3.97l1.44 3.31L467.81 516l3.47.62 2-.78 2.25.56 2.03-3.25-.22-3.56 1.82-3.44 5.53-3.43 2.4.37 1.75 1.97 1.22 2.5h1.1l3.96-3.41h2.75l1.91 2.07 2.13-.35.53-3.15 1.9-3.35-.47-2.47-2.06-1.5-1.59-4.81L5e2 488l3.03-2.31 4.72-1.25 4.34-2.44 1.88-.28 2.9 1.56-.46 5.06 1.56 3.47 4.03 1.22 1.47 4.41 6.75 5.93 2.22.28 3.56-3.03h1.31l2.19 5.35 1.06 1.87-.15 3.97 3.65 3.94 4.31.4 1.5 1.04 1.1-.66 2.9 1.72 5.44-2.69.22-3.97 1.38-1.25 9.25.38 1.56 1.06.5 3.16 2.09 1.15 8.66-1.94 2.25-1.03 4.34.25 1.38 4.07 1.28 1.18 2.15.1 1.66-1.25 2.34 2.31 2.94.5 5.16 4.03h.94l4.9-2.28 3.91-.34 3.06 1.87-.12 1.19.37 2.06-2.37 2.81.1 1.13 3.94 2.62.1.85-.5 2.09-2.72 1.81-2.22 3-5.22 12.13-1.93 1.5-5.16-.38-1.69 1.03-1.12 6.72-6.22 9.38-2.38.69-4.37-.91-4.44-5.34-1.16.56-1.75 1.5-2.28.15-4.59-2.84-2.63-1.03-2.37.66-2.88 5 2.91 3.84-.16 1.22-.68.75-9.03 7.4 5 6.29 3.37.53 2.25 6.37 7.13 1.19 2.25 2.5.9 3.66-.4 2.68-6.19-4.81-1.28.53-.69 2.66-2.69.28-1.59 2.22.4 3.84 7.13 3.03 2.87.63 1.29 3.44 1.9 3.18-1.06 1.57h-4l-7.13 2.66-2.9-2.19-4.69.69-1.22-1.19.38-3.84-1.1-.22-2.06-2.16-2.12.38-2.07 4.12-4.65.91-3.35-.62-2.53-2.35 1.19-1.65-.31-3.69-2.41-1.66-.69-4 1.53-1.75-1.78-1.81-3.68 1.44-3.6-.75-1.72 2.84 1.5 3.72-1.22 1.66-5.03.87-1.4 3.94 1.22 2.03-.88 4.19-4.84 4.56-2.72 3.25-1.85.22-1.21 1.37-.85 10.19 2.88 4.16-.38 6.31-.28 1-6.37 3.69-1.57-3-2.03.28-6.75 4.15-.87 1.54-6.13-.22-1.72-2.69-2.37-.66-.38-5.47-2.72-1.9.66-3.66-1.16-.75-1.28-2.69-2.31-1.81-.5-5.72-4.72-4.62-.5-3.44-6.06-6.87-3.06-.1-6.19-2.15-.56-3.66-1.35-3.09 1.75-2.6v-2.84l-2-1.06-2.71.56-5.82 5.69-1.78-.32-2.56 2.53-3.41-4.71-2.47-31.16.66-1.72v-3.72l-.94-2.34-.34-13.25-1.81-1.35-.97-4.5-2.35-2.84-.37-2.34 1.53-.19 2.63-1.88.1-1.46-4.31-4.13-2.85-4.56-.43-5.78-2.72-3.07-.5-3.81-4.28-3.34-5.32-1.25-3.25-2.31z" class="main"/><path d="m579.61 606.9 1.68-.97 1.08-2.37-.32-2.55 2.19 1.94-.22 2.55 2.77 1.54 1.79-1.79 1.37-3.99 1.54-2.69 2.91-1.26 2.8 1.3 2.15-.22 2.58-2.01-1.61-4.09.72-2.51 1.11-.15 2.66 1.44 2.01.32 1.07 2.48 1.62.64 2.33-1.93 5.1.1 1.94 5.21-.61 2.33 1.54 1.15 3.59.93.22 3.77.79 2.37 1.25-1.15-.46-1.9.75-.32 1.29 1.33-.29 2.33 1.58 1.44 4.02.21 1.94-2.66v-2.19l1.83-1.18-.9-13.64-2.8-1.26-4.27-5.17-.36-4.63-2.62-.79-3.27-3.59-2.19 1.76 1.08-10.3-3.05-4.2 4.13-3.02 2.91.1 4.16-1.83 4.31.28 4.84-1.58 5.75-6.28 3.8 1.51 1.47-3.09-.68-3.95 1.01-2.26-.79-3.55-2.37-2.91-2.16-1.44-.1-4.48-5.71-.18-6.93 1.25-1.61-.39-.83-3.2-5.03-.53-4.73-3.09-.65.54.57 2.37-2.54 3.01.21.94 3.84 2.87.4.93-.76 1.8-2.87 1.93-2.22 3.31-4.89 11.38-2.22 1.72-5.17-.25-1.62.82-1 6.97-6.53 9.22-2.3.86-4.35-1.14-4.05-5.14-1.33.43-2.08 1.65h-1.83l-5.03-3.15-2.76-.72-2.16.93-2.4 3.95v1.36l2.33 2.52.36 1.61-1.18 1.4-8.37 6.68v.9l4.49 5.95 3.19.29 1.22 1.87 1.33 4.77 7.15 1.08 2.33 2.44.86 3.84-.25 2.73z" class="main"/><path d="m579.45 606.45.54.11 1.65-.72 1.18-2.26-.64-3.09 2.4 2.08-.36 2.84 2.55 1.38 2.3-1.83 1.02-4.22 1.64-2.44 2.83-1.19 3.04 1.49 2.11-.37 2.25-1.94-1.33-4.27.82-2.46 1.24.12 2.19 1.28 2.07.34 1.24 2.58 1.49.49 2.31-1.89 5.01.17 1.69 3.28.28 1.96-.32 2.19 1.51 1.11 3.48.75v3.95l1.02 2.3 1.25-1.06-.46-2.01h.72l1.49 1.18-.44 2.41 1.85 1.36 3.75.1 1.67-2.53.27-2.46 1.87-.68 1.02 2.68 1.6 1.81-.48 2.31.35 4.63.72 3.68 2.03 2.36-.43 2.35-1.53 1.22-1.11 1.9-3 1.27-5.81 5.69 1.2 2 1.38.35 3.2-2.31 2.31-.16 1.8-.81 1.92.16 1.6 1.44.66 4.81-.54 1.18-3 2.5 2.09 2.78-.47 1.88-1.4 1.94v2.08l3.17 4.42.45 2.01-3.97 5.96-3.14-.99-2.51 1.17v1.29l1.42 1.29-.58 1.82-4.45.18-1.59.91-1.51 3.61-4.65-2.77-2.76 1.3-1.73 2.08-1.18 3.86-2.95.37-1.75 1.48-4.4-3.49-2.77.63-2.45-1.9-.94-2.94-1.24-.74-4.25 3.88-1.45 2.96-1.73 1.56-3.86.36-7.34 4.72-2.6.74-.1 3.85-4.15 2.75-1.25-1.22-2.34-.1-1.36-1.11-4.76-.47-1.36-2.82-5.57-.66-1.27.77-1.81 3.16-2.21.66-2.41 2.12-2.9-.12-2.07-.92.74-2.51 2.33-3.34.49-5.49-2.28-2.98-3.39-1.47-2.61-5.84 3.72-7.66.25-4.9 2.94-3.41-5.11-6.32-1.74 1.08h-3.86l-1.87 2.5-1.52.16-3.79-.7v-3.12l-1.33-2.3 1.24-2.66-.5-1.81-2.96-1.33 5.54-6.8 2.05-.25 3.46 1.86 3-2.72 3.7 1.68h7.32l2.25-1.04 2.87-.56 3.25-8.13 4.59-.7 3.16 1.94 7.16-2.37 3.7-.1 1.2-1.42-2.35-3.89-.92-3-3.23-.61-6.62-2.89-.61-3.73 1.6-2.08 2.6-.58.75-2.37 1.64-.55z" class="main"/><path d="m420.16 614.72 3.78-3.41 2.68 1.63 3.69-1.6.31-5.12-.78-1.85 1.13-2.75-.5-3.56 3.06-.4 1.91-2.54.18-3.03 1.63-1.59h1.97l1.47 19.25 3.43 4.97 2.63-2.6 2.03.29 5.53-5.69 2.85-.56 1.75.9.21 3.13-1.59 2.34 1.28 3.25.38 3.47 6.28 2.44h3.15l5.88 6.84.59 3.38 4.57 4.68.53 5.63 2.47 2.03 1.21 2.59 1.1.44-.63 3.94 2.53 1.84.6 5.35 2.53 1.06 1.44 2.28 5.84.41 1.47-1.66 6.69-4 1.65-.22 1.66 3 6.47-3.91.59-2.09v-5l-2.69-4.12.85-10.19 1.28-1.72 1.81-.19 7.56-7.65.72-4.16-1.15-2.19 1.65-3.65 4.81-.89 1.19-1.66-1.42-4.02 1.58-2.57 3.64.68 3.81-1.33 1.75 1.72-1.5 1.55.55 4.02 2.44 1.64.2 3.81-1.2 1.7 3.11 2.53 3.4.41 4.17-.95 1.97-3.8 2.22-.63 2.09 2.21.86.25-.26 3.78 1.34 1.22-3.15 8.19-3.18.29-2.18 1.44-2.85-.39-4.33.26-1.82-1.34-2.28-.34-2.71 2.84-3.4-2.26h-1.27l-6.05 6.34v1.05l2.8 1.04.69 1.75-1.56 2.88 1.53 2.2.2 3.13 3.69.93 1.68-.68 1.22-1.94 3.96-.23 1.82-1.19 5.3 6.31-2.8 3.38-.26 4.89-3.97 7.82 2.66 5.74 3.42 1.48 2.05 3.03-.47 5.86-2.18 2.77-1.37 5.37 2.55 4.58 1.25.85.89-2 3.22-.13 1.28.72 1.79-1.05 2.85 2.32.67 4.71 5.27 2.02 2.71-2.33 2.75 1.88 2.14.67 2.6-.85 1.3-.57 3.87 4.32-1.41 8.55-2.04.49-2.63-.58-7.4 7.47-4.32-1.88-8.82 6.16.15 4.62-10.73 3.83-2.57-2.62-2.82 2.45-2.19 5.23-6.45-6.5-2.44 4.52-3.33-4.38-7.69 7.64-8.78-6.81-2.44.66-1.15 2.76-5.03 4.43-9.66-1.08-2.92 5.67 4.01 7.7.89 8.32-1.07 7.42-2.68-1.28-6.84.12-3.75-11.73-6.14 2.22-4.72 3.96-4.22-1.61-3.47 2.07-2.29-5.71-2.69-2.21.25-6.25-16.06-3.08 1.56-5.42 2.55-3.54-.39-5.15 3.46-3.78-.68-3.72-8.28-.1-3.38-2.91-1.08-8.19-2.62-7.3 2.65-4.48-4.95.19-6.2-1.42-6.17 1.17-4.52 4.22-3.03.28v-2.61l2.3-4.66-.72-3.98-1.55-1.56-.85-4.55 1.23-3.22 3.62-1.19-.79-2.4 2.48-6.43 5.36-1.36 1.89-4.79 3.16-.36 3.36-4.78 2.42-.66 1.23-1.67-1.75-3.69 2.74-3.97 1.55-15.5-1.4-5.98.86-3.53-.2-4.24-4.17-2.7-2.52 2.87-4.14-9.23zM736.53 323.36l-1.15-4.09 2.09.72v-1.15l1.65-2.73 2.58-.71 5.82 5.45 2.15.61 1.4-1.33.97.54 2.8-.5.83 1.72-2.01 1.87-.54 2.48.93 2.19 2.59 2.47-2.7 3.74-2.44.14-1.4.86-1.83.15-2.26 1.68 1.47 1.83 2.41 1.91.28 2.15-1.79 2.12-4.2.43-1.36 1.36-.36 1.69-1.48.39-3.33-1.72-7.47 1.72-4.06-2.65-1.76-3.23 1.08-5.06 1.83-2.77 2.98-1.11.5-3.05-1.79-2.26.65-2.19 2.8-2.19 1-1.01z" class="main"/><path d="m753.8 343.78.36-3.69-.22-5.39 2.3-3.48 2.19-.36 2.8 1.22-.18 3.05-1.08 1.08.54 3.52 2.37 3.19 2.05-.21 1.22 1.11.61 2.69 2.47.4 1.3 1.47-.29 4.4-.95.22-4.14 2.85-1.81 4.41.42 5.56-2.62.95-5.69-2.27-2.3.86-1.97-.4-2.66-3.09-.29-1.93 1.48-3.31-.1-2.8-1.22-2.08.65-3.87-.54-2.45 1.65-1.83z" class="main"/><g class="main"><path d="M798.72 329.16 796.5 328l-.72-3.16-2.75-1.9-1.25-4.1-5.34-.59-1.53-2.16-3 .22-3.44-3.78 2.12-2.12-.28-2.75 2.47-2.69v-1.72l-1.03-.53-2.63.1-1.62.88-8.66-.13-1.15-1.09-.32-3.03-4.22-4.75.94-2.13-.53-2.94-4.12-3.34-1.88-4.12-3.78-4.35-2.53.38-3.28 2.9-2.78.16-4.54 3.25-.12 1.62 1.25 2.79-.13 4.28-1.15 1.25-4.35.1-2.28-.81-4.31 4.22-1.41.43-2.5-1.03-6.18 4.72-3 4.06-4.91.5-1.19-1.5-.25-7.12-2.09-3.25-4.31.1-2.44 4.88-2.13 2.65-.15 4.81-3.22 3.32-.56 3.62 1.65 1.97-1.75 2.91.47 1.28 1.75 1.28 6.1 9 .62 3.31 2.41 1.03.15 1.07-2.62 1.81-2.83.91-1.17 2.61 1.02 2.03 1.94 1.06 3.03.29.97 1.17.64 3.2 2.01 1.9.84 2.19-1.13 3.2-.48 4.69-2.5 1.63-5.48 1.18-2.16 2.56.24 1.88 1.3 1.23-.17 1.18-4.14 4.42.36 6.14 1.9 1.48 3.2 1.39 1.19 3.25 5.68 7.53-3.38 7.23-.48 3.14-1.09 1.1.2 2.54.62 1.99-2.52 3.76-2.19.4v3.11l2.98 4.16 2.34 1.1 5.24.44 1.33.98 5.94.33 1.88 1.52 1.94.22 1.81-1.39 1.35-.22 2.68 1.72 2.54-2.27 2.25-.1 3.65 1.28.22-2.36-3.6-5.19.17-4 2.72-3.63 2.17-1.5 2.82-6.32 1.57-5.88 2.99-1.08.99-3.78 1.42-1.68 1.83.98 1.39-.87 2.79-3.91 1.56-2.41 2.17-.73 3.93-.5 2.83.22 1.75-1.04v-2.61l2.69-2.63 1.73-2.4-2.81-2.28-2.83-5.38-.1-.92-2.45.75-6.16-2.41-1.86 1.06-2.3-.64-2.47-2.69-.24-2.59 1.19-2.87.1-2.85-1.2-1.84.71-4.28-.73-2.26-3.87.4-1.79 1.53-.11 1.74h-2.3l-2.63-1.32-7.42 1.48-4.02-2.54-1.53-3.25.6-4.38 1.86-3.29 3.09-1.17.82-3.23-2.19-2.34.91-2.21 2.78-2.1.97-.82 3.05-.61-.95-3.83 1.73.25.15-1.17 1.88-2.72 2.5-.44 5.81 5.34 1.94.58 1.81-1.22.89.62 2.45-.55.95 1.74-2.12 1.84-.53 2.19 1.02 2.43 2.89 2.58h1.77l2.54 1 .11 3.42-1.55.69.64 3.95 2.24 2.66 2.47.3.93.91.68 2.72 2.79.46.79 1v4.67l1.34-.29 3.52 1.74 2.37-1.19 1.54-1.8h3.59l1.55-1.04 1.1.44.72-4.76 1.27-4.6 2.83-4.62 2.46-1.48v-2.25z"/><path d="m746.11 337.22 2.59-1.63 1.69-.17 1.14-.5 2.06-.26.71 5.61-.58 3.62-3.39-.41-.39-2.39z"/></g><path d="m647.06 467.43 5.6.5 2.87-1.18 2.45-2.82 2.74-.72 1.8-1.45 4.45-.45 5.01-5.4 2.02-1.21h2.57l1.06-2.93 2.3-1.09 5.6.37 2.01-2.08 3.51.65 3.56-2.1 5.01-3.56 3.69-3.08.31-8.37.64-2.4v-6.55h5.6l1.65 1.23 5.56.38 1.91 1.31 2.15.23 1.81-1.43 1.6.29 2.41 1.25 2.62-2.3 1.93-.18 1.46.88 2.64.44v.96l-1.29 1.39-.74 3.1 1.1.77 5.6-4.18 2.81-1.09 2.95-2.23.32 1.98-3.66 2.87-8.15 8.52-.88 2.44-2.24 1.51-1.76 1.96-.49 2.17-1.83 2.03v1.74l1.08.68 4.74.43 3.1 2.5 2.61 1.23.3 2.66 2.28 1.8 3.03-1.49 3.95.12 1.4-.93 2.39.52.54 2.12 4.14 3.37 2.59.29.88.88.59 3.46 1.78 2.08-.76 1.46-1.31.89-1.24 1.73-3.5 2.26h-1.56l-3.03-4.06-2.24-1.9-2.86-.22-1.65 1.26-.65 2.89 1.49 6.62-4.02 1.88-1.07 3.27.98 2.32-1.25 3.34-2.12 1.47-3.7-.38-.45 1.87.6 1.29 4.38 1.09 1.29 1.31.18 3.2 1 1.69 3.2.5 2.99 2.65 1.91.31 1.9-2.35 2.23-1.24-.11 2.33 2.4 7.15-1 7-3.93 1.04-2.89 3.21-.54 5.56-2.96-.78-.61-2.07-1.87-.77-1.06.95-.45 1.63-4.61.54-4.67-2.12-.46-2.67-1.67-.16-1.55.39-2.71-1.81h-.93l-1.72 1.61h-1.74l-1.51-1.76-2.64-2.14-.84-2.71-.56-6.21-.93-.7-1.6.63-1.94 1.92-2.19.84-4.38-2.31-2.85.21-6.07 2.43-2.39-.95-4.32 1.34-10.2-2.55-1.86-1.99-3.74-.38-2.27-3.21-3.58-2.73-2.85-4.72-2.5-2.51.11-5.46-3.52-3.01-1.41-3-2.8-1.76.25-2.46-.83-3.73-2.74-1.13-.49-2.57-1.87-1.67-.53-2.72z" class="main"/><path d="m769.48 374.61-1.59 2.53-2.61 1.92-.36 3.41-1.8.89-2.48-.22-6.41 1.14-1.43 2.91-4.14 4.47-1.89-1.11-1.25 1.89-.96 3.59-3.09 1.06-2.2 7.66-2.46 4.84-2.54 1.8-2.16 2.97-.24 3.51 1.6 3.1 2 2.44.19 3.14-1.64 1.98-.27 2.75.8.83 5.7-4.17 3-1.32 2.81-2.14.39 1.77-4.64 3.84-7.47 7.94-.5 2.28-4.09 3.06-.5 2.47-1.94 2.08-.14 1.92 5.74 1.19 3.67 2.44 2.09.9.39 2.82 2.52 1.68 3.14-1.28 3.65-.2 1.63-.72 3.39.28 2.92-1.61.67-5.95 5.3-2.22 2.52.88 3.84 3.93 1.34 3.43 1.39.96 2.68-1.78 2.84 1.53 1.44-.21 2.75-2.36.89-2.47 2.9-.75 3.49 2.14.1 2.3 1.28 1 2.56-1.58 1.7-5.64 3.83-.89 1.36-6.13 1.38-2.51 3.34-1.24 2.91-.23.49-4.11 1.53-2.28 2.06-5.15 3.27-1.01.72-2.41 1.54-4.1 2.38-2.14-2.77-3.03 1.82-1.8 2.65 1.32 3.12.48 2.6-2.61-.25-6.02 1.61-2.94 2.32-.52 4.52-3.76 3.31-2.3 1.57-1.19 2.67-2.05 2.58-3.36 2.8.51 1.34-1.34 2.8 2.54 2.97-2.29-1.23-3.19 1.03-2.57-.24-4.33-3.03-1.17-2.78 1.52-3.31-1.52-4.95 1.99-4.11 2.05-2.44-1.07-1.71-1.95-2.22.49-4.37-2.82-3.18-1.47-3.9 1.47-4.2 3.2-.76 4.04-4.53 4.03-.76 4.29-3.42 3.67-7.22-.77-5.48-2.09-.77-9.67-3.17-3.42-4.77-1.25-2.97-2.22-2.63.95-3.41 2.1-3.18-2.65zM700.91 327.25l-.76.47-1.72 3.77-4.15 1.93-4.2 3.15-2.2.1-2.62-1.66-1.92.57-2.21 2.08-.99 2.05-2.35 1.31-4.79-1.9-2.26.89-3.77 8.24-1.83 5.1-2.64 1.85-3.83-.61-1.18 1.88-.65 2.32-2.53 2.08-.89-.18-.1 5.12-.37 2.38-2.41 2.5v5.53l-1.01 2.51-.59 4.27-3.55 3.09-1.78 3.62.14 3.72 2.75 2.53 2.64 3.79-.1 2.76-1.2 2.24.19 3.09-3.53 6.66-.16 7.57 1.65 2.25.3 9.98 3.97 10.42-.34 3.24-2.71 4.52-1.89 5.69.33 7.25 1.07 2.17 5.82.18 3.23-1.2 1.96-2.64 4.77-2.01 4.43-.83 5.32-5.7 1.59-.74 2.37-.1 1.03-2.64 2.92-1.04 4.86.1 2.61-2.17 2.76.88 1.67-.43 2.76-2.32 5.82-3.96 2.48-2.41.27-7.18.61-2.92-.1-7.04-2.62-2.42-2.4-3.34.36-2.37.95-.75 1.07-.15 2.48-3.62-.66-3.13.27-1.92.68-1.16.64-3.45 2.05-3.12 1.04-3.02-.95-2.28-4.38-5.26-1.27-3.71-3.83-1.42-1.16-1.44-.69-5.76 1.4-1.77 1.39-1.26 1.4-1.67.1-1.42-1.15-.99-.32-1.48 2.28-2.64 4.22-.86 3.32-1.82.5-1.29.43-3.88 1.22-3.05-.99-2.35-2.1-1.96-.55-3.03-1.04-1.15-3.41-.32-2.03-1.4-.49-1.62 1.12-2.53 3.28-1.04 2.26-1.97v-.7l-2.58-1.24-.56-3.36z" class="main"/><path d="m604.56 399.53 2.78 3.72 4.16-.28 2-1.19 1.56-4.78 2-4.28 2.88-2.03 3.09-5.35 1.88-1.59 1.37-2.72 4.03-1.16 1.47-1.21v-1.91l-1.4-1.72.75-5.62 3.84-3.63 1.62-3.78.97.62.38 1 4.12-.68 2.72 1.47 1.06-.91 1-1.84 3.69-3.88 2.85 3.09.34 4.25-.38 2.94-2.59 2.53-.1 5.44-.82 2.44-.53 4.37-3.72 3.47-1.78 3.41.16 3.37 2.91 3.19 2.43 3.72v2.59l-1.18 2.41.15 3-3.5 6.66-.25 7.53 1.57 2.34.46 9.97 3.75 10.41-.31 2.96-2.53 4.6-1.87 5.78.25 7.34 1.18 2.25.88 3.57 1.81 1.84.41 2.12 2.72 1.35.93 4.31-.18 1.91 2.56 1.81 1.94 3.16 3.15 2.84v4.81l-3.94 4.47-3.65-2.62-3 2.15h-4.19l-1.41-.75-6.97-.78-2.46.84-.79 1.1.6 1.75 3.75.5.62 3.28 4.28.94 2.69 1.81-.31 2.81-3.28.66-3.16 1.53-2.78.4-1.66 5.38 1.04 2.56 2.65 2.69-.84 2.37v3.04l-6.5 1.25-1.85-.54-.72-2.87-4.81-.78-8.12-5.1-3.85.32-5.72 2.5-5.59-4.35-2.94-.37-2.09-2.38-2.13 1.16-2.53-.28-1.03-1.53-.81-3.16-4.63-.47-2 .97-8.71 2.13-2.19-1.22-.69-3.41-1.47-.91-4.81-.34 3.41-3.78 1.06-3.84-1.03-2.6-3.13-1.69 1.35-2.21 3.62-1.72 7.44-.1.4-.9-.34-1.16v-4.47l-1-1.65 2.75-6.22 1.5-1.47-.1-1.72-2.22-2.13-3.91-1.12-.19-1.5 2.94-2.66.47-3-.97-2.15.69-2.19 4.84-1.19 3.69.5 3.41 3.06 8.81-1.53 1.91-1.15-1.29-2.32.22-3.5 1.35-.21 2.62 1.21 3.1-1.65 5.53.31 2.09-1.34.5-4.75-2.03-2.72-.47-4.63 3.25-2.81-.28-7.59-2.56-2.32-1.85-.4-3.9-2.72-2.69.75-3.84-3.75-6.63-1.91-.75-.68-2.19-.5-1.68-4.22.53-2.38-1.44-2.72 1.12-5.25 2.6-2.93 5.23-1.36 3.99-.1 2.28-1.67zm133.52 93.18 2.08-1.58.93-3.19-.68-2.62.97-3.27 3.91-1.54.11-1.22-1.44-5.57.58-2.98 1.97-1.07 2.66.21 2.08 2.05 3.27 3.88 1.54-.1 3.41-2.08 1.15-2.15 1.69-.97.57-1.19-1.97-2.26-.22-3.23-.9-.97-2.94-.21-4.09-3.05-.29-2.55 1.94-.47 2.04-1.29 1.98.1 2.04 2.05 7.11 2.26.68 3.01 3.63 2.59 2.08-.25 2.95.82h3.41l2.9 2.87.65 2.01 1.44.72 1.75-.9 2.98-.93.94.58v3.66l-1.8 6.35.22 1.72 4.13.94 2.04 2.87-.18 1.44 1.47 2.83 2.09 1.58 5.17-1.15.75-1.36.39-1.98 1.37-2.01 1.04-.1 4.63 2.33 1.79 3.91-2.15 3.77-1.47-.25-2.15-1.62-4.74.76-.4 1.58 1.65 2.04.86 1.98-.75 2.33-2.3 1.83-1.32 2.23-.33 2.01 1.33 2.04 2.12 1.69 3.3 1.15 1.01 1.08 2.87.82v4.24l-1.36 1.47 1.4 2.33 3.59-.32 2.94-1.26 2.44-.25 2.27 1.33 4.23.5v4.85l-1.26 4.59-1.36 1.83-1.94 1.44.18 1.04 1.65 1.33.5 1.76-1.51 1.9-2.11.72-3.77-.25-1.19.93.29 3.73.47.76.32 4.81-1.87 1.08-.5 3.26-5.1 6.07-1.76.5-2.04 1.87-2.3-2.52-2.01-.57-2.55.97-5.63-.5-2.48-1.65-1.76-2.52-2.12-.32-.39-.68-1.62-.29-.93 1.01-.4 3.05-1.36 1.07-2.01 3.49-2.8.21-1.22-1.65.47-1.9 2.04-2.19.22-1.9-1.73-2.41-1.68-.9-2.16 1.3-.64 1.83-1.87 1.9-5.38 2.4-.58-2.9-1.33-4.71-1.43-2.72-2.48-1.69.22-3.16-2.3-2.15-1.37-2.19 1.51-2.95 1.9-2.69.36-1.62-3.47-2.54-1.54.1-2.24-.62h-2.48l-3.27-3.39.71-5.8 2.78-3.02 3.97-1.09.96-7.06-2.34-6.66.11-2.72-2.06.92-2.16 2.49-1.94-.1-3.15-2.91-3.13-.38-.87-1.45-.19-3.5-1.52-1.44-4.09-.84-.69-1.23.63-1.91z" class="main"/><path d="M806.7 437.8h-3.17l-1.37 1.09-1.88.32-1.09 2.31-1.28 6.12-3.88 1.16-1.59 5.28-2.69 1.66-1.53-1.1-.1-2.4-2.97-1.88-3.16.69-.81 2.53-3.28 2.72-1.5-.19-2-1.43-3.28 1.71-1.82-1.96-.97-2.6-4-4.19-2.56-.28-4.53 1.91-.91 3.81.1 2.22 2.25.41 2.09 1.97 6.63 1.78.96 3.06 3.54 2.94 2.25-.22 6.96 1.06 2.19 2.16.63 2.47 1.06.4 4.84-1.65 1.44.78-.16 3.47-2 6.12.44 2.06 4.13.75 1.93 3-.12 1.66 1.5 2.47 2 1.65 5.37-1.28.88-3.43 2-2.19 5.19 2.53 1.65 3.87-2.03 3.85-1.37-.19-2.38-1.72-4.94 1-.43 1.44 1.75 1.81 1.03 2.44-1 2.44-2.16 1.4-1.59 3.57.59 1.9 3.19 2.97 3.22.84.97 1.13 2.68.84v4.25l-1.28 1.5 1.25 1.94h3.72l2.66-1.53 2.9-.1 2.32 1.46 4.22.32 1.9-.78 2.63-.32 6.43 4.19 2.66-1.22 1.56.1.94 1.5 2 .37 2.28-1.84.81-2.16 2.75-2.06.82-2.06 1.81-1.32.81-5.03 1.64-2.85-.84-.47-1.99-2.25-3.92-.73-5.01-.8-.51-2.78-3.53-.7-3.98 1.98-1.3.44-.37-.52 1.65-2.61 3.41-1.57 4.98.52 1.79 2.55 2.65.97h4.78l3.61.51 3.54 2.03 4.46.74 2.1-.47.64-1.27-2.68-3.65-5.24-4.74-4.87-1.28-1.77-5.07-4.42-1.72-5.08-1.27-1.94-1.39.77-3.37-1.22-3.18-6.06-8.84-3.75-6.25-4.81-9.12-2.47-2.46-12.38-3.79-2.26-2.52-5.65-1.02-.55-4.84z" class="main"/><g class="main"><path d="m856.5 509.2-1.62 2.26-1.07 5.56-1.62 1.44-.97 2.08 2.16 1.33.86 2.29 4.02.83 1.43 2.19 4.73-3.4 3.24-3.99.71-3.83-3.39-2.91-5.29-2.01z"/><path d="m859.26 506.4 6.04 1.54.5 1.57-3.96-.54-3.91-.88-3.55-2.46 1.74-1.12zM866.54 511.64l-.1.67-3.72-1.33z" style="stroke:#0978ab;stroke-width:.5"/></g><path d="m859.63 527.25-1.69-2.25-3.88-.94-.56-2.34-2.13-1.06-2.78 1.71-.87 2.19-2.44 2.19-1.72-.63-.81-1.59h-2l-2.31 1.31-6.69-4.4-4.41 1.18-.12 5.5-1.66 4.85-2.9 2.84 2.43 3.69-1.47 2-2.87.81-3.78-.25-.41.94.75 9.37-1.84 1.1-.19 3.47-5.41 5.87-1.87.38-3.31 4.43-.32 4.22 6.22 4.91 2.88 3.47 2 7.69 4.62-.29 1.5 1.22.35 3.32-.35 1.06 2.22 2.53 3 6.94.41 1.81 5.09.59 4.19-2.53 1.44-3.06.75-.84 1.47.56 2.9 5.09 2.06 1.28 5.66-2.34 1.5-.94 3 .56 2.18 1.43 1.59-2.14-.25-3.72.25-2.32 1.78-5.08 1.55-3.62 1.73-1.23.51-6.1 3.46-1.44.72 4.77 2.44-3.34 3.15-2.18-1.92-4.08-1.87-3.2 2.85-2.59v-3.51l2.75-3.75-1.02-3.07 1.77-1.51-.97-3.65-.43-5.08-1.43 3.49-3.48.31 3.89-5.27 4.31-3.31 3.41-1.7-.44-2.21-5.35-2.19-2.08.7-1.51 3.52-2.75 1.1-3.39-2.35-4.48-3.48-3.6.48-4.77 4.27-2.63 1.06-4.63-.77-4.15-1.04-.93-1.58 3.54-1.91 5.33-.51 2.85-.95.24-2.97z" class="main"/><path d="m735.33 663.03 1.78 1.39.34 1.38 4.25.2 3.13-1.78 2.75-.69 1.78.86 1.37 2.56-.84 2.53-3.81 2.68-1.05 3.92-2.8 3.72 4.49 3.01 14.15-5.5 5.52-2.84 4.98 3.76 2.55-.14.67-1.67-1.43-4 2.81-2.12-1.81-3.78-.11-2.29 1.65-1.56 1.07-9.31 1.42-1.99.12-3.56 2.6-1.48 1.81-3.89-1.16-4.16 3.22-3.33v-1.25l-1.97-3.95.48-5.53 2.38-1.83 4.67-1.98 2.95-4.91-1.84-6.03 2.14-4.99.51-3.15 3.79-2.21 2 .21 1.2 1.19 2.14.28.61-1.8 3.06-2.31 7.06-3.36-.2-2.99 1.8-2.47-2.02-7.67-3.28-3.68-5.95-4.74.2-3.75 1.72-2.98-2.34-2.72-2.18-.5-2.2.89-5.81-.36-2.69-1.92-1.45-2.19-2.14-.23-.5-1.08-1.67-.13-.86 1.13-.54 3.04-1.31 1.3-1.89 3.25-2.5.27-1.44-1.66.38-2.09 1.97-2.02.36-2.25-1.85-2.2-1.57-.67-2.27 1.01-.55 2.08-2.09 1.8-9.56 4.7-3.18-1.55-3.57-.2-2.05.53-.47 3.44-1.69.87-2.62-.34-1.39 1.02.72 1.82-2.52.6-2.16 1.95-.64 1.66-5.98 2.06-3.88.37-1.23 1.77-4.8 3.16-.34 1.48 4.87 6.31.13 4.25 2.48 3.92-.56 1.88-2.17 2.3-1.89 4.73-3.69 1.28-.36 3.28-1.48 2.19-.25 3.83 1.15 4.34 1.18.64 1.81-1.39 1.34 1.11.46 1.3-1.47 2.91.56 1.4 2.92 2.47-1.58 3.27.53 1.95 2.35 2.01 2.56.83.38 2.96-1.1 1.82-.4 3.66 1.51.7 2.13-1.36.93.68-2.5 3.34.14 3.09-2.18 4.78 1.53 2.18z" class="main"/><path d="m661.22 496.26 2.44 2.24 3.59 5.78 3.09 1.78 2.22 3.34 3.61.43 1.94 1.72 3.98.85 5.87 2.01 4.72-1.37 2.25.61 6.37-2.17 3.08-.11 4.13 2.37 1.92-.93 1.74-2.01 1.71-.7 1.02.57.41 6.97 1.24 2.33 4.11 3.66 1.48-.29 2.08-1.49 3.43 1.93 2.4-.44 1.04.79.1 1.96 4.67 2.41 4.47-.78 1.52-2.58 2.01.77.54 2.07 2.89.93 3.7 3.8 2.33-.43 4.06.99 3 2.14-.51 2.17-3.3 4.83 1.89 3.19 1.84 1.31-.18 3.34 2.53 1.61 2.45 6.48.8 4.04-4.47 2.12-2.97-1.49-3.68-.41-2.12.48-.34 3.39-2.1 1.19-2.28-.22-1.22.99.46 1.8-2.19.34-2.33 2.1-.74 1.83-5.9 1.92-3.95.2-1.6 2.24-4.23 2.73-.77 1.42-2.66-.53-1.45.72-.6-2.33-1.77-1.67.12-3.18 1.24-1.94-.59-2.45-2.08-2.36-.24-2.08-3.98 2.89-4.88 6.25-2.88-.34-.61-2.16 1.14-2.81-1.28.35-1.18-1.22-2.23.81-3.09 2.91h-2.62l-2.47 1.71-9.18-6.27-8.79-.43-3.16-1.95-5.67-.86-3 .32-1.83 1.13-3.62.65-.36 1.36 3.28 2.73.54 2.06-4.04 2.51h-3.37l-1.83.59-1.89-2.65-3.44.41-3.38 2.35-1.94.92-3.28 2.99-.45 2.84-1.81 2.24-.51 3.88-2.85-.9-4.18-5.36-.29-4.51-2.91-.79-3.1-3.48-2.35 1.56.77-3.27.16-7.61-2.76-3.64 3.93-2.98 3.43.11 3.51-1.83 3.13.28 3.89-.44 3.63-2.12 4.65-5.22 3.85 1.43 1.37-3.14-.61-3.48 1.04-2.93-.88-3.12-1.42-2.46-3.19-2.1v-4.47l-6.05-.45.18-3.34.68-1.99-2.78-2.94-1-2.25 1.86-5.36 3.38-.63 2.44-1.42 3.32-.64.5-2.89-2.82-1.8-4.61-.82-.3-3.43-3.76-.36-.66-1.53.95-1.33 2.57-.7 6.93.78 1.61.77 3.93-.15 2.52-2.11 3.84 2.51z" class="main"/><path d="m635.62 590.87.54-3.81 2.81-5.81 2.62-2.59 5.6-3.41 3.4-.28 1.88 2.37 2.56-.59 2.81.25 3.72-2.44-.5-2.25-3.47-2.81.41-1.34 3.84-.41 1.66-1.56 8.44.56 3.59 2.16 8.63.43 9.31 6.47 2.5-1.75 2.65-.53 4.32-3.28 3.15 1.12-.78 2.38.53 2.16 2.75.31 4.94-5.85 3.78-3.46.56 2.37 2.04 2.78.5 1.88-1.25 2.25v2.9l1.62 1.75.72 2.47 1.19-.65 3.09.46 4.63 6.1.4 4.62 2.53 3.63-.72 1.9-2.18 2.6-1.82 4.53-2.75.78-1.15.91-.19 3.09-1.5 1.88-.31 3.93 1.34 4.53 1.06.38 1.79-1.28 1.75 1.5.18 1.22-1.78 2.56.66 1.31 3.12 2.53-1.53 3.38.41 1.75 2.37 2.09 2.63.97.34 2.91-1.12 1.78-.41 3.75 1.41.72 2.37-1.57.75.66-.37 1-2.22 2.38.12 3.06-2.06 5 1.69 2.31v2.81l-2.97 2.72-6.78.28-4.1-2.43-6.03 4.75v1.18l1.31 2.19-.25 4.75-3.15.38-4.88-4.22-7.65.43-.72 4.32.9 2.09-1.28 2.47-2.9 1.03-6.29-.19-2.43 3.1-.75.34-.88-1.34.31-2.5-.71-4.63-1.75-1.87-2 .15-2.32 2.22L678 680l-1.28-1.5.1-2.34 2.44-3.44.97-2.19 1.87-1.69.63-6.4 1.28-1.53.22-2.29-1.35-.56-2.65.5-1.07-1.75.63-6.25-2.66-.69-1.59-1-2.16.25-1.9 1.75-4.35-.84-1.81 2.91-2.84 2.78-1.1 1.94-2.62.68-1.07-.65.1-3.16-1.85-1.75-1.72.34-1.59 2.97-.72 2.41-1.97 1.97-1.47-.31-1.31-1.32h-2.75l-.47-2.28-3.09-4-.25-2.12 1.94-2.57.12-1.18-1.94-2.94 3.07-2.91.31-1.5-.53-4.15-1.6-1.35-2.31-.1-1.78.81-2.19-.12-3 2.28-1.4-.25-1.35-1.72 5.82-6.09 3.12-1.16 1.03-1.81 1.56-1.13.25-2.31-1.81-2.44-.84-3.84-.22-5.53.37-1.44-1.43-1.66-1-3.47z" class="main"/><g class="main"><path d="m804.56 695.18-.49-.99-1.42-.94-.36-1.42-2.92-5.11-.55-4.88-3.17-4.34-1.55-1.11-.89-2.66-1.87-.21-2.55 1.35-2.78-3.04-2.88-1.56-2.89.78-1.56-.88-2.58.16-1.97-3.8-.1-2.33 1.83-1.5.8-9.62 1.51-1.71v-3.79l2.57-1.3 2.06-3.86-1.3-3.89 1.41-2.12 1.75-1.43v-1.4l-1.99-3.44.47-5.87 2.55-2.04 4.36-1.68 2.23-2.96.93-2.54-1.63-4.71.78-3.95 1.16-1.64.51-3.31 2.43-1.41 1.51-1.12 1.89.39 1.14 1.42 1.96.15.95-1.96 3.11-2.07 6.94-3.53-.21-2.98 1.47-2.35 4.77-.25 1.26.88.74 3.53-.5 1.02 2.29 2.57 1.77 4.77 1.59 3.11.16.95 3.59.28 1.22.43 4.05-2.58 2.37-4.07 1.47.77 3.3 5.05 2.05 1.18 2.46-1.4 4.77-1.86 2.75.53 2.04 1.45-1.05 1.43h-3.17l2.16 1.55-1.88 1.88-.26 3.51-1.42 1.19-3.36 2.33-.67 3.61-.73-.92-3.6-.55-.86 3.14 3.87 3.35.91 1.59-1.69 2.17-1.31 4.2 1.52 2.54-.51 2.26 1.24 2.23-2.28 3.54 2.3 3.33-.41 1.43-2.01-.45-2.91-1.85-1.95 2.23-.54 2.96 2.12 2.59-1.99.66-4.22 3.7 1.54 2.83-.88 1.53-5.5.26.91 2.42 1.91 1.19-.92 2.07-1.17 1.62h-4.23l-3.13 1.56-1.75 2.5-4.44.83 2.61 2.33 1.17 2.32-1.92 1.92-1.96 3.19h-2.89v4.22l-3.87-1.03 1.02 4.58-2.64-.48-.77 3.56z"/><path d="m850.41 617.37-.72 2.5 1.25 1.78 1.07-2.14zM848.98 643.08l-.36 2.32 1.61 1.97 1.61-1.79-1.08-2.14z" style="stroke:#0978ab;stroke-width:.5"/></g><g class="main"><path d="m656.59 759.62 1.02-3.28 2.41-.97 1.29-3.96 1.41-1.21 6.92-.83-1.02-1.64.15-4.21 4.2-.65 3.53-2.7-1.45-3.72 1.15-2.39 4.17-1.73 6.97-6 1.53-1.91.15-3.51-.94-2.16-.1-4.14 1.72-5.44 2.22-2.01.28-3.1 2.53-.76 2.22-3.13-.75-5.12 2.51-2.47.1-2.47-.91-1.8-.14-1.53-1.25-1.97-.11-1.98 2.81-1.03 1.74-2.46-1.06-2.28.89-4.06 7.57-.59 4.96 4.5 3.15-.5.16-4.94-1.62-2.27.57-1.5 5.93-4.37 3.95 2.56 6.86-.41 3.03-2.56 1.62 1.49.61 1.53 3.91.1 3.45-1.95 2.66-.44 2.03 1.16 1.09 2.45-.9 2.61-3.72 2.51-.97 3.68-2.81 3.62 4.28 3.03 14.22-5.08 4.29-2.81h1.44l5.1 3.5 1.96-.25.94-1.87-1.28-3.19.69-1.59 3.81-1.38 2.47.97 3.28-.66 2.81 1.6 2.41 2.9 3.5-1.47.91.38.87 2.5 2.22 1.94 2.84 3.9.32 5.03 3.03 5.04.1 1.09 1.56 1.03.32.87-1.98 2.83 1.9 1.67-3.4 1.58-5.77.51-.1.47 1.93.73 1.33 2.21-3.92 1.72-.49 5.25-4.67.74-3.04 2.27-2.27.51-3.7 2.71-4.09-2.29-1.18 1.48-.73 4.14h-2.35l-.24-2.18-1.44-.86-3.2.26-3.62 3.37-1.47 2.45-2.92.22-.52-3.9-3.97 1.99-.26 3.57-2.67-1.26-3.77 1.5-3.93 1.35-2.67.16-2.24-2.1-1.04-2.52-2.28.21-1.29-1.28-.99-.74-.87 2.3.77 1.21.22 1.07.26 2.61 1.41 3.68.24 1.72-.11.19-2.35 1.39-2.39-2.3-.4.28 1.24 3.07-3.26 4.19-3.45-4.43-1.14 2.56.39 5.7h-3.86l-4.26 3.01-3.9-1.04-.78 2.32h-7.2l-2.32 1.29-3.18 1.06v2.32l-3.11 2.15h-3.29l-1.78 1.52-5.58.26-1.77 2.27-4.05.26-3.53 4.8-2.49.25-3.6 2.57-2.39 2.4 1.09 3.54 2.76 1 .75 3.48 3.49 3.49-.22 1.32-3.41 3.4-7.28.25-.66-2.19 1.43-1.13-4.51-2.39-.51-5.85-2.73-.74.97-7.82 2.76-4.26 1.44-2.6z"/><g style="stroke:#0978ab;stroke-width:.5"><path d="m672.55 767.9-1.61 1.07.54.9 2.5-.18.53-1.97zM731.85 739.93l-.86 1.21 1.06.26zM719.1 749.28v1.52l1.24.5.1-3.04zM716.27 749.7l-1.09 1.98 1.14-.1.88-1.07zm-15.1 4.38-.13 1.01 1.52-.76v-1.89z"/></g></g><path d="m567.75 725.59 7.16-7.15 2.9.5 1.85-.66.59-6.84.5-1.47-3.63-4.53-4.18 1.68-4.6-2.34-3.25 2-4.68-2.19-.66-3.93-2.72-3.19-2.16 1.34-1.28-.9-3.25.28-.72 1.97-1.4-1-2.6-4.6.85-2.4 4.34 1.15 5.28-3.34 2.66-3.6 5.81.72 1.78 2.78 3.94.44 2.13 1.31 2.09-.12 1.19 1.16 4.31-2.75-.13-3.85 2.82-.4 7.18-4.94 3.91-.38 1.91-1.87 1.53-2.97 3.81-3.56 1.47.81.87 2.66 2.82 2.09 2.59-.56 4.19 3.34 2.15-1.47 2.54-.44 1.43-3.81 1.6-2.12 2.59-1.32 4.75 2.97 2.41-4.47 4.78-.12 1.03-1.75-1.56-1.94.65-1.15 2.25-1.07 2.63 1.03 4.22-5.75 2.37-.1 1.81 1.41h1.5l1.75-1.85.66-2.37 1.91-3.06 1.5-.22 1.5 1.53.12 3.5 3.31.22 5.22-6.44 1.03-1.44 4.19.75 2.69-2.09 5.69 1.84-.38 6.44 1.13 1.28 3.56.16-.1 2.34-1.35 1.94-.47 6.22-2.15 1.37-.47 2.35-2.72 3.25-.31 2.4 1.62 1.66 3.94-4.19h2.06l1.88 1.94.65 7.31.75.75 1.63-1.03 1.16-2.12 5.96.21.54 2.25 1.28 2.25.12 1.66.91 1.5-.28 2.09-2.38 2.22v2.35l.69 3.09-2.25 3.09-2.56.75-.38 3.07-2.15 2.03-1.63 5.53.1 4.25 1.1 2.16-.35 3.62-5.56 5.5-4.53 2.84-2.63.88-1.03 2.47 1.41 3.53-3.69 2.87-4 .63-.22 4.09.85 1.47-1.78.97-4.57.22-1.93 1.47-1.19 3.81-2.41.88-.9 3.21h-.51l-3.08-3.84-1.66.34 1.02 4.3-5.87 1.21-1.51 1.09-.97-3.83-2.87-.78-2.92-1.6-1.46 1.46-2.31-3.03-.82-3.23-3.2.87v4.81l-2.7.74-1 2.23h-1.76l-.58-.53-3.51 1.39-4.14-2-6.25 1.65-7.97-3.93-2.4-2.72-6.53-1.47-1.35-7.03-1.53-1.5.41-3.13 3.43-3.19-.34-3.15-5.41-2.41-4.21 1.6-4.13-2.82-4.34 1.66-7.35-4.5zm90.51 68.74 5.18.89 3.22-.71.89-1.61 6.61-.89 4.28-1.25 4.82-2.14 1.43.53v3.57l1.43 3.93.54 3.4-2.5 2.14-2.68 3.75-2.68 5.71-.89 6.25-.72 4.65-2.32 1.07h-2.14l-3.57 4.46-.18 1.97-3.22.17-3.57.9v3.57l-4.46.71-2.14-1.96-6.08.36-4.28-1.97-5.36-2.32-.71-4.29-1.25-3.03-.9-4.82.9-2.32-.72-2.5 1.25-2.68 7.68-5.36 2.68-.71 1.43-2.33-2.5-.17v-2.15l2.14-1.43 3.93.18 1.43-.71v-1.79l1.78-.89z" class="main"/><path d="m744.14 728.48 3.91-1.3 2.9 2.46-1.91 1.18.51 1.6-2.42-.44-1.7-.45-2.22.22z"/><path d="m744.14 734.29-3.42.57 3.14-2.31zM749.31 733.41l-.97.82-1.29-1.06z" style="stroke:#0978ab;stroke-width:.5"/><path d="m733.31 736.4 1.82-1.39-.61 1.16z"/><path d="m735.77 736.48-1.79 1.43 1.61.89z" style="stroke:#0978ab;stroke-width:.5"/></g><g class="lakes" style="display:inline;fill:#c8ebff;fill-opacity:1;stroke:#0978ab;stroke-width:1px;stroke-opacity:1"><path d="m521.79 91.974 3.71 2.475 6.54 2.121 2.83.354 3.89-1.945 3.54-1.237 7.42-2.475 3.18-1.591 3.36-4.42v-2.121l.88-3.359-.35-2.121 1.06-1.768 2.3-1.591 3.71.354 1.42.707.7-1.061v-1.944l3.54-2.652 2.47-1.414 1.77-1.415 3.36-.883 2.3-1.415 4.24-3.535 2.3-5.127 3.53-3.712 2.83-.53 1.42-2.122v-3.182l-1.42-1.591h-2.65l.18-3.535 1.24-1.768 2.12-.884 1.59 3.713 1.41.883.89-3.358v-2.829l3-3.005.53-3.536-1.41-5.126.53-6.01 1.77-2.299v-5.656l.88-13.523-7.96-.09-.53 10.254-3.18 4.242-1.24 6.188-2.29 4.773-1.59 5.303-2.3 4.596-1.24 4.42-4.07 4.242-3 2.652-1.06 4.419-5.66 4.596-3.18 3.182.41 1.196 3.75-2 3.88-2.375 2.87-2.375.75 1.125-.12 1.875-4.25 3.375-6.13 1.75-.75-.75-1 2.5-2.25 3.375-3.12 3.875-3.75 2-3.63 4-2.5 4.25-2 3.5-5.5 4.625-5.87.5-2.63 2.125-7.12.375-2.13 1.125h-2zM491.69-3.221l2.7 3.006 1.59 1.59-1.41 1.857 4.33-.354 1.06 2.298-.89 4.862 2.48-1.326-.89-8.574-4.92-3.756zM967.62 181.42l3.18 1.42 1.24 1.06 1.94-.18.71-1.94 1.06-.71.71-5.13.18-1.23.7-5.48-3-.71v-1.59l-5.48-.89-2.48 1.95-1.59 2.3.18 3.53 2.12 1.95zM59.695 181.78l2.298-2.83.177-6.9.884-1.59 3.889-1.59.177-2.3.353-1.23.531-3.19 1.767-.88 3.359.53 4.066-.53v-1.59l2.121-2.65 1.591-1.59h2.475l2.475.88 1.061-1.06 2.121-1.41h1.061l1.237 2.82 6.541.36 4.601 1.06 3.53 1.24 1.95.7 4.77 3.01 2.65.17 3.18.89 3.36 1.77 2.83.88 3.36 2.48 2.83.53 1.23.7 1.95-.7 4.06.88 3.19.88 1.41-1.59.88-2.12 1.77-1.24.89-.17.53-2.83-.71-1.06h-3.71l-1.42.53-.17 1.41-1.24-1.59-2.48-.71-1.76 1.24h-1.77l-1.24 2.65h-1.41l-1.77-2.83-3.71-2.29-6.19-.53-4.6.17-1.77-2.29-3.18-.54-2.12-1.76h-3l-.71-2.12-2.3-2.13h-2.827l-1.061-1.06-3.712-.53-3.536.36h-1.768l-2.298-1.77-.884-1.77-7.247-.71-1.415 1.6-.883 1.94-5.127 1.94-4.419-.17-.354 1.23-.53 2.83-2.829-.17-1.06-1.24-1.945.88.354 3.36-2.652 2.3-1.237 1.41-1.238 2.3-1.944 1.24.883 1.94 2.652 2.66.354 2.82 1.591 3.19.176 2.29zM218.39 150.19l1.75.25 4 3.87 1.87 1.5 1.88.13 1.25-1.38-2.63-3.62-5.87-4.88-6.13-1.25-1 1.38 4 3.87zM77.019 247.36l.707 1.95 3.536 1.06 2.475 1.94 6.364 4.24 3.889.18 2.121.53 3.359.18 4.6-2.83v-.89l3.53-1.06 2.12-1.59-.53-1.23 1.95-1.6-5.31-.88-2.47-.53-2.65.53-3.715-.88-1.768-1.06-2.828.7-8.132-.35-1.414.53h-3.712l-1.238-.71zM360.14 124.31l3.75-.25 1.12-2.75 4.38-2-2.63-3.25-2.75-2.87-1.25-1.75-2.37 1-1.63 1h-2.75l-.25 4 1.63 1.75.5 4.75zm112.62-23.37v6l-1 7.5v2.5l2.25-2 2.25-5.5 2.75-1.75-.75-2 1-3.25-1-5.001-1.75-.75-2.5 3zm252.75 46.25 2-4.5 2.25-2.75 1-1.75 4.25-2.75-3.75-2.5-2-2.25-2.75 3.25-4.25 8.25v2.75zm109.25 374 1.5 1.87 2.25 1.13 1.88-.13 1.12-3-1.87-2.75-1.63-3.12-2.62-1.13-1.13 1.25zM799.76 485.31l.5-2 2.25-.5 1.63.13.5-3.75-2.13-2.13-2.62-1.5 1.12 2.5-1.12 1.38-2.5.12-.63 2.63.75 1.75zm-328-53.62 1.38-1-.13-5.75-2.62-.75-1.63-2-1.75-2.75-1-1.75-4 .12-1.25-.87-2.87.5-1.5 1.25 1.37 2.37-1.37 1.5-1.63.13-.37 1.37 2 1.38 2.37 2.5 2.38 1.87 6.12.13 2.25 1.37zm-54 36.82 2.12-.44.17-2.39.36-2.83-1.33-.18-1.77.53-.17 2.13-1.15.88.35 1.94zM412.19 467.54l.7-1.95.98-1.06-1.42-1.06-4.15.27-1.59.97 1.32 1.5 2.83 1.41z"/></g><g class="rivers" style="fill:none;stroke:#0978ab;stroke-width:1px;stroke-opacity:1"><path d="m535.93 86.494-1.41-2.122-3.36-3.182-1.24-3.712-5.66-5.303-.17-2.298-3.01-2.652-.88-3.712-4.95-3.889.18-3.359.35-1.591.18-5.657 1.59-1.237h2.29l-2.47-2.298-6.01-2.122 2.65-1.06-.71-2.652-3-4.42.18-2.828 2.65-3.712 2.12 3.358.18-1.767-1.6-3.713V21.97l-2.65-2.651.36-2.475 3.53-3.713V8.005l-1.94-5.48.17-5.657M982.64 90.564l2.62-2.375-.75-4.375 1.13-2 6-3.25 2.25-.625 2.37-3.25.25-2.25 2.88-2.75v-2.125l-1.13-1.75v-6.875l2.04-1.875 1.7-3.5-.2-2.375-2.16-2.375.12-9.375.74-2.5-1.11-2.625-1.13-1.375 1.84-3 2.3-1.75 1.9-.25M730.47 123.71l1.42 2.47 2.38 2.21h1.6l1.41-1.77 2.12-1.24 1.68.45 1.5 2.12 2.12 1.06 1.95-.62 3 .62 2.57-.71 4.77-3 2.65.17 2.74-1.06 2.65.1 2.04 1.15h1.68l2.82-2.56 4.34-2.57 5.03-3.89 3.89-3.8 3.89-1.32 2.92-2.74 3.71-4.6M413.6 465.5l2.21.8M406.88 464.62l-3.27-.97-5.74-2.48-6.9-1.24-2.29-.17M786.64 378.44l-1.25 4.25-2.25 2.87-2.5 1-1.88 4.38-3.12 1.75-1.13 1.87-3 .5-1.75 1.75-4.62 4.13-2.13.62-1.37 5.13-2 2.75-2.88.12-1.87 3.13-1.75 4.62-5 4.38-2 3-1 2.87-1.88 1.13-1.25 1.87-1.87 1.88-4.75 4.62-1.38 3.13-3.25 2.62-1.62 3.5-2.13 1.88-.12 2.87-1.88 2.38-1.12 1.5-4.75-.25-2.5.87-5.63-.12-.75.87-4.87.63-.75-.88-5.13-.25-3.12 3.13-4 1.25-1.63.75-3.25-.38-3-1.75-5.25-.62-2.25-1.88-1.5-1.37-2.25.5-2.62 2.25-3.13 3.25-3.5.75-2.87 1.25-3.13 1.37-2.5 2.13-3.88 1.36-5.92-.88-.1-8.93 4.42-11.4v-2.3l-3.27-9.19-.1-10.96-1.77-1.95-.17-7.51 3.8-6.01-.89-2.65 2.04-3.1-.53-4.42-4.95-5.92.17-3.53 5.04-6.81 1.24-7.34.53-4.59 2.74-2.92-.27-5.48 3.63-3.36v-1.85l-2.48-2.12.1-1.77.44-1.24-.44-3.89-4.59-3.45-4.78-.61-5.3-1.07-5.75-2.91-1.67-1.15-2.74.35-3.63 1.24-1.68-.62h-2.12l-2.3 1.06-6.54.18-3.36-.8-4.59-2.21-.45-1.59-3.18-1.5-2.83-.18-1.32-.53-2.21.62h-3.63l-1.94 1.42-1.86 2.21-1.41.61-2.3 1.15-1.5 2.04-.53 3.44-3.89 4.25-2.65 3.53-.18 4.51.89 1.59.53 7.07 1.76 1.68v2.92l-.35 5.57-1.86 1.59-1.23 2.91-1.68 3.36.17 3.98-2.21 2.39-3.27 5.48-1.41 3.71-2.56 2.3-.27 4.06-1.94 1.86-3.27 1.86-6.28.53-3.45.7-4.24 3.01-3.45 1.5-4.24 2.65-.88 1.42.1 3.09 1.23 1.41 3.01.89 2.12 3.44-.71 3.1-3.53 3.36-4.16 1.77-2.47 2.65-.97 3.09-1.24 1.15-1.95-1.06-4.06-1.77-2.83-.35-2.39 1.59-.88 2.12 1.15 2.3-1.5 1.77-3.36.53-3.1-.89-5.12-.35-3.98-.53-2.48.35-2.03-.26-1.94-2.83-2.39-2.3-2.83-1.06h-1.68l-3.09 2.12-1.86.53-3.27-.88-2.38-1.33-2.48-.71-1.24.53-1.85 2.48-1.06 2.21-2.57 1.06-3.27 2.3-2.12 3.27-.97 2.3 1.41 4.59-.17 4.51 1.41 3.36.35 1.86 2.04.88 2.91 2.47 4.51.71 1.5 2.03 1.33 3.63-.26 3.53.97 2.21 2.56.89 5.39.35 4.69 1.41 4.15 1.07 3.18.7 1.95 1.33 1.06 3.45 2.56 2.82-.35 3.36-2.3 1.24-3.8 1.59-2.03-.71-1.77-2.03-1.06-3-1.95-1.6-3.62-.1-4.15-.98-1.86-1.59-1.95-1.68-1.06.18-.88 2.03h-1.15l-1.86-2.12-1.76-1.77h-2.04l-1.32 2.04-3.1 1.32-1.41.53-1.06 2.39-1.77 1.15-1.5-.18-3.54-3.89L454 492l-2.04.62-3-1.24-2.57 1.06-1.85-1.59-1.95-2.65-.7-8.84v-1.59l-2.74-1.24-1.86.62-1.59 1.5-2.65.1-1.42-2.12-1.94-2.56.71-1.95-.53-3.18-1.15-.88-2.74-1.24-2.57-3.63-2.29-.88-.8.44M299.4 519.15l-1.32.89-.18 1.5 1.5.8.8-.8z"/><path d="m835.21 503.69-1.41 1.06-3.54-.18-3-2.3-.88-2.3-1.24-1.41-1.42-.35-1.59 1.94-5.83.53-5.3 1.42-1.77 1.41-3.01.88-1.41 2.83-1.77 4.42-1.24 3.01.18 2.12-1.06 3.36.18 3-2.3 1.42-3.36 2.12-1.59 3.71-1.95 1.24.36 3.89-1.95 1.23-4.77 3.01-1.77 1.59-1.41 2.83v.53l-2.65.35-1.59 1.59v4.6l-1.42 2.65-2.3 1.06-1.23 3.18-3.01 2.48-2.83 1.59-1.94.18-2.3 1.41h-3.01l-2.29-1.94-4.6.88-2.47-1.24-2.83-3.53-2.83-1.42-1.42-3.36-3-.53-1.95-1.41.18-2.12-1.59-1.06-.88.79-2.04.89-1.76-1.59-2.21-.18-1.86 3-2.65 3.98-1.59 2.3.44 2.21-1.59 2.83-2.48 2.47-2.83 1.33-3.09 3.45-3.18 3.71-1.24 2.83-1.94 1.15-2.83-1.33-.27-2.21.71-1.68.62-1.68-1.59-.97-1.68.1-2.21 2.47-1.15-1.23-3.27-.45-1.94 1.33-.45-1.06.1-3.27-3.53-1.5v-2.3l.44-1.59-1.5-1.24-4.87-.18-1.32-1.24-2.56-.44-2.39 1.24-1.06 2.12-1.15-.53-.8-2.39-5.56-6.45-3.28-1.59-3.53-1.15-2.92-1.77-5.57-1.14-2.65.7-3 .44-2.74-.44h-3.63l-2.12.89h-3.8l-2.56 1.5-4.78.62-1.59.53-7.33.35-2.48 1.77-.88 1.15-.53 3.27-1.5 1.94-.89 2.3-2.38 2.56-2.48 3.36-2.12 3.63-1.15 3.27-1.24 1.68-5.04.35-1.14 2.03-2.39.98-1.59 1.14-.89-.61-1.32-1.68-1.68.53-1.42 1.5-1.32 2.39-4.95.44-1.24 1.32-.35 2.57-2.21 2.56-3.71 2.03-.98 1.77-.88 1.06-2.92.8-1.32 1.5.1 2.47-1.42.18-2.47-.62-1.33-.79-1.41 1.23-2.92 1.86-1.77 1.24h-1.68l-2.3.97-1.59-1.59-3 .26-3.1.27-1.59 1.68-1.59.97-2.74.27-1.85-.71-2.3.8-2.48-.18-1.68-.62-1.41 1.15-.27 1.85.89 2.21-.27 2.39-1.94 1.59-2.12.1-2.48 1.77-.44 1.41 1.15 1.95-.44 2.91-1.15 2.39-5.22 5.04-1.41 2.83h-3.01l-1.14 10.6 2.21 4.51-.27 7.43-6.19 4.06-.97-.17-1.59-3.1-3.54 1.86-5.03 4.24-.71 1.59-.53 1.68-1.95.53-2.38-.79-.27-1.86 1.77-3.18.62-3.63-1.24-1.59-1.24-2.3-3.97-.26-3.01 1.24-1.41 2.65-3.1.62-2.82.26-3.01 3.27-1.68.89-5.57-.89-3.18-.88-.35-11.49 1.15-1.59.79-8.13.8-2.57-.98-3.53-.53-6.19-1.32-1.24-1.42.71-.88 2.3-1.59 3.62.18 3.98-2.3 3-.71 1.59-.26 3.89-1.15.62-.71-.53-.88-3.62-4.69-5.13-2.21-6.27-1.77-4.87v-2.29l-1.15-3.01.18-2.83-3.18-5.03-.18-2.39-1.24-6.1.36-6.54-.8-6.1-.7-5.04-.62-4.59 1.23-2.74-.1-3.63-1.06-3.18-1.07-12.46-2.56-6.81-2.12-3.62 3.71-3.18-.16-2.29-4.75-4.25-1.75-3.87-.13-4.25-3.25-4.38-.87-4.25-3.38-1.87-6.5-2.13-2.75-2.62-2.87-3.38-2-3.12-1.25-1.88-2.13-3.12-1.25-2.38-3.12-1-2.5-4.12-4.38-3.75-2.12-1.38-4.5-2-2-1.87-2.88-4.75-2.25-3.5-4.12-4-3.75-2.25-2.38-1.13-.75-2.62-3.25-.75-1-.88h-3.37l-1.38 1.13h-2l-2.37 2-3.5.37-3 4.13-2.5 2.75-5.5-.38-2.5-.87-4.13.5-2.5 2-4.12-.13-2-2.75-4-1.25-4.25-.25-2.38 1.88h-1.75l-2.37-2.5-3.38-1.25-5.87-1.25-1.88-.75-5.75-.38-3.12.5h-1.38M733.84 723.83v-3.64l-1.75-1.5-4.13-.38-3.75.38-3 1"/><path d="m734.39 726.22-3.25-.78-.88-2.13-1.62-1-5.38.13-1.87-2-.25-.63-2.38-2.25h-1.75M729.94 723.04l.45-1.85 1.62-2.13M731.35 738.98l-1.21-3.29-2.38-2.25-1.5-1.88-.5-2-1.25-1.12-1.12-2.5-2.88-1.25-1.87-2.75-.88-2.5-.5-1.63-2.5-.37-2 .25-2.37 2.62h-1.13l-1.37-2.12h-1.13l-2.12 2-3.5.37-6.13-.37-3.75-1.5-1.5-3.75-2.12-1.63h-2l-1.88 1.25h-3.62l-1.63 1.13h-1.62l-1.63-1.38-2.25.5-2.37 1-1.88-1.25-2.75-1.37-1.62-.63-1.38.25-1.62 2.75-2 .88-3.5-.25-2.25-.63-2.38-3.12-2.25-2.5-1.62-1-1 1.37-1.88 1.5-2.75-.5-1.12.5-1.38 1-2.75-.12-1-1.5-.75-1.5-2.25-1-2.37-2-2.5-.88-2.38.13-2.5 1.75-2.12 2.12-1.63.88-2 1.37h-2.87l-.38-1.5-2.5-2.25-3.12-.87-.88-2.63.38-1.5 1-1.37v-2.25l-1.63-.63-.12-2.62-1.63-2.25-1.75-.75-.75-2.88v-1.37l-2.12-2-3.13-2.63-2.75-3-1.37-1.12-3.5.37-2.75 1.88-3.25 1.87-3.75 1-.13 2-.5 2.38-2.62 2.87-2.13-1.5-2.87.25-1.38-1-4.25-.87-1.37-2.63-3.38-.37-2.12-1-1.63 2-2.12 2.75-2 1-1.88 1.87h-2.5l-1.75-.87-1.87 1-.5 1.12-2.25 1.5-2.75 2-2.38 1.25h-3.62l-2.13 3.25-.37 1.75-2.38 1.13-1.62 2.12.5 1.88-1.13 2.37-2.87.5-2.88 1.25-1.37.5-1-.87-.88-3-.12-7-.88-1.88.25-2.25.63-1.12-.63-.88-1.12-.75-.13-2.25 2.13-2.12.37-3.25 1.13-1.5 2.5-.38 2.12 1.38.75.75 1.38-.75 2.87-1.75 2.38-2.88 1.5-1.62-.25-3.88-1-3.25.25-4.37.75-1.63M347.26 498.69l3.38 2.12 6.12.5 1.75-1 3 .88 2.63.62 1.87 1.88h1.25l1 3 4.13 1.62 3.75.75 1.62 3.5 3.63 1.88 1.37 1.75 5.38.62 2.62 2.63 1.75 4 2.25 3 3 .37 2 3.13 2.75 2.62.88 4.5 2.37 4.13-.62 3.62-.38 4.75 1.63 2.13 1.62 1.12.38 5.75 2.75 2.88 1.62 3.75 5.75 6.12.75 3.25 2 3.63 2.63 2.75 1.37 3 .63 3.25 1.62 3.75 2.25 1.87.38 3.75.12 3.25.88 2.38-1 1.5 1.75 2.75 1.87 2.87.88 6.75 1.12 5.5 1.75 1.5v2.63l-1 1.37.75 4.88 1.13 4.62.87 1.88v8.5l-1 5v14.37l2.25 4.25 1.13 3.38.62 1.5-1.12 2.62.62 2.5 2.38 3.13 3.25.62 1.5 2.75 3.12 4.25 3.13 1.75 1.87.63 3.5-1 1.75.25 2.88 4.62 1.25 4-.5 4.38-1.63 2-1.62.75-.63 3-1.75 2.62-2.12 2.88-1.5 4.75-1.13 4 .5 2.62 2 3.25 1.5 1.13 1.13 2.62.75 3.5 3.37 3.13.75 3.87 2.63 3.63 1 3.62 2.37 2 .88 2.13 2.87 1 1.88 1.25m-14.13 43.62 2.13.63 2.62-.38 2.13-.87 5.87-.13 4.13.75 6.12.13 3.75-2 3.75-1.38 3.25-1.25 2.13.13.75 1.75-1.75 1.62-4.38 3.38-1.87 3.12v2.88l.75 1.62-1.13 2.38.13 10.5.62 2.12-1.37 3.88-4.5 4.37-3.5 3.5-.5 2.5.75 4.5 1.87 3.25M299.39 518.94l3.25-1.38 1.5-2.75-1.38-3-1.62-2.25.12-2.25 1.88-1 3.12-.5 3.88 1.5"/><path d="m299.51 522.44 1 2 .25 3.12 1.63.5.75 2.75 1.25 3.75 2.87.88 2 2.62 3.13.63 2-2.5 2.25-.75 4-1 3.62-.5 2.88.75 5.37.75 4.5 1.5 9.5.12 4.38 1.5 4.25.5.87 2.38-1.37 1.37 1.37 2 1.38 2.88 4.25-.13 1.25-1 7.25.63 2.12 1.25 1.25 2.87 2.13.75 3.62-.5 2.38.13 3.5 1.87 2.75.63 1.75 3.12 1.5 5.25.87 1.13 2.38.25.5 2.5 1.87 1.87 5.63 2.13 2.87 2.62 1.38 3.63 1.25 1.75.5 3.75 1.12 1 1.25 3 4.38 2.37 1.25 2.25 3.25 6.38 1.87 4 1.88 1.12 1.37 3 .75 3.63 1.13 3.75.62 4.25 2.5 2.37.75 4.75-.25 3.5 1.57 2.5 1.43 5.94-.12 6.25.26 6.48-.18 7.78-1.14 5.3-.1 5.4.79 7.33-.97 6.81-.35 2.83.97 6.27 2.74 3.36-.18 2.74-.79 2.21.97 1.86 1.06 1.5-.88 1.5-3.63 2.3M425.18 706.54l-1.5.1-1.5 1.85.44 3.45 2.65 2.56.88 3.63-.97 2.83 2.3 2.29-.35 2.12-3.45.8v3.45l.53 1.77 1.24 1.67-.36 1.77-1.68 1.5.62 3.36.89 1.68v3.54l-.71 1.68v2.83l1.68 1.41.88 2.03-1.06 1.95-2.03 1.24-.53 1.5.26 1.85 1.15 2.83-.62 2.12.53 2.92.98 1.59.88 2.74.53 2.12-.1 1.86-1.94.88-3.01.45-.79.88.26 3.36.97 2.3 1.68 4.24.62 4.95-.53 1.77-3.89 1.68-4.77 2.21-5.39.61-2.21.1-2.21 2.04-3.09 4.06-1.07 3.18-1.85 3.45-.53 4.77-.97 2.12-.8 2.92-.62 1.95-1.85.7-.45 2.3.1 3.01 1.95 2.47M402.02 847.96l-.44 4.51.35 2.47-.79 2.57"/><path d="m413.58 603.81 2.18 4.57 2 2.31 2.44 3.06 2.69 3 .62 4-1.31 4.56M422.14 626.06l-2.38-.37-1.25-.63-.87 1 .62 3 1.5 5.13 2.38 4.12 1 3.13.12 6.12-1.62 5-.88 5.5-.87 1.25-1.88 3.5-.62 2.75-4.13 5.5-2.12.88-2.13-2-2.37-.5-1.38 1.25-.62 3.25-2.38 2.87-2 1.25-.62 2.75-1 4.13-3.38 3.25-.37 2.75 1.62 2.25-.25 5.75.75 1.37-.62 2.63-2.25.75-2.75-.25-3.13-3.13-2.12-1.37h-1.5l-2.38 1-3.62 3.75-.25 4.5-1.38 1.75-4.37 5.62-1.25 3.75-.88 12.75-1.25 3.63.5 1.37.5 11.25.63 2.13-.5 2-1.75 1.12-2.5-1.87-4.38-.13-3.67 2.62-1.94 3.89-1.41 3-4.6 4.07-4.77 1.24-.89 1.23-.53 4.78-3 3.18 1.59 4.24 1.59 3.71v7.61l4.77 6.71-.18 13.61-1.23 3.36-.18 3.19 1.06 3.53-.35 1.42-2.3 2.29-.18 2.3 2.65 3.54.45 2.11 2.87 2.25.63 5.62.62 6.63 1.13 4.87 1.5 1.38-1 2.37M353.89 866.31l1.5 3.13 3.25 5.5 3.12 3.12 1.5 2M119.39 527.69l4.5 2 6.5 3 2.87.62 2.13 3.13 3.5 3 2.25 4.12 3.75 2.75 6.12 2.75 1.63 4.38 4.25 2.25 3.25 1.25 1 3 .62 3 2.88.62 2.5 1.5 2.37.63 2.13-1.38 2.62-.62 2.25 1.12 3.38 1.88 2.37 1.87 4.25.13 2.75 1 7.88.62 5.5 1 6.25 1.75 6.62 2.13h3l2.25-1.75 3.5-2 2.88-.63 2.12.38 2 .75 8.63 1.37 12.75 1.63 7.37 1.5 2.38.5 3.5-.5 3.5.5 3.62 2.62 2.5.38 2.63-1.25h3.62l5.38 1.5 8.5 1.87 7.25.25 6.62 1.25 3.13 1 2.87 1.88 6 2.25 3.75.5 1.13 1 1.37-.13 2.25-1.37.63-.88h3.37l3.88.75 3.37-1.25 3.88.13 2.87-1.88 2.75-2 2.75-.62h4.13l1.75-1.63v-2.87l1.62-1.5 2.38-.5.5-1.13 1.37-.5 1.38 1.13 1.62.87.38 4.13.62 2.75-1.25 1.25-2.12 2.25-1.75.87-3.88 2.25-1.62 2.63-1.88 2.25.25 1.37 1.88 3.25 1.87 3.13-.12 3.75-1.5 1.75-.13 2 1.5 1.37 3.5.88 2 2.75 1.63 3-.75 1.87-5 1.63-1.38 1.12-1.12 1.38-3.75.75-4 3.87-1.38 1.5-1.62 3.38-4.38 3.75-2.62 1.25h-3.38l-3.5 1.62-1.75 1.38h-3.87l-1.5-.88-5.75.13-3 1.12-8.25.38-1.5 1.25-5.38-.25-4.37 2.12-2.5 2.13-5 1.87-3.13.13-4.5.62-3-.87-2.25-1.13-2.87.25-2.38 1-3.12-1.12-2.25-1.88-5.25.13-2.13 1.25-4.12 1.5-1.88 2.25-3.62 3-2.63 6.12-1.62 4.38-.38 3.5.25 3.5.88 3.37 1.37 3.25-.87 5.88-1.38 4.12-1.25 3.25-.75 5.38"/><path d="m246.76 667.31-1.5 3.75.13 4.63.5 3.37-.13 5.5.5 5.63M261.51 714.94l-.5-3.13-4.25-4.25-4.12-3.37-3.63-1.63-2-3-2.12-1.87-3.5-.5-2.75-1.88-1.88-1.25-2.75-.5-2-2-1-2.25-4.87-1.12m-11.75-13-2.75-3.5-.75-5.38-1.13-3.62-3.37-4-3.75-2.25-2.5.37-2.25 2.25-2.88-.37-3.12-2.38-1.5.75-1.63.75-1.25-.12-.87-2.25-2.13-.75-2 .25-1.37.75-2.25-.88-3.13-1.25-3.87-4-3.25-.75-3.13-2.87-3.62-1.38-2.88-.5-1.25-2.5-4-.25-2.37-.87-3.88.37-3.12-1.87-3.25.62-1.38-.87-2.12 1-3.25 2.37h-1.75l-2-2.37h-2.5l-1.13 1.25-1.12 1-2-.13-2.88-2.12-1.75.37-.37 2.5-1 1.13-1.38.25-1.25 1.75-4.25 1.37-2.25-2-3.25-.37-2.62-1.63-4.375-2.62-3.125-1.63-1.125-4.12-3.125-.5-4-3.25-.875-3.5-6-8.25-5.375-.88-2-4-1.25-3.37-3.625-6.5-1.75-3.88-2-8.75-3.625-2.5-1.5-7.37-5.875-5.25-1.125-3-2.25-1.63-6.875-5.25-3.875-5.5-.875-8.12v-11.38l1.875-3.37-.25-7.25.625-2 3-.63.625-.62.625-4.75 2.75-2.25 2-.75 1.75 1.75 2.25-.75.75-1.5 2.5-.38 3.25.63 1.75-1 2.625.87h2.75l3.625-2.75 2-1 2.25 1h2l2.25-2.12v-3.38l2-2.37M-4.341 379.68l7.644 7.69 5.657.35 3.712-1.24 1.061-3.36 1.591-1.94 1.768 2.65 2.298 1.95.354 1.23 4.065 1.24.708 2.83 4.419 4.95 3.182.88.177 3.54 2.298 4.42 1.237 1.59.177 5.48 4.419 4.07 2.475 6.18 5.48 3.89 5.834 4.07 4.066 7.07 5.303 8.66-1.061 2.65 6.895 7.07 5.657 1.06 3.535 5.31 2.652 3.18 3.889 9.55 2.121 1.41 9.193.18 5.835.7 5.12 3.89 4.07 2.65.88 5.31 1.07 3.53-2.13 1.42-1.94 3v4.78l3.89 4.24 3.71-.71"/></g><g style="display:inline;fill:none;stroke-opacity:1"><g class="borders" style="stroke:#646464;stroke-width:1"><path d="m921.2 354.42 1.44-4.28 2.02-3.78 1.64-4.3 3.92-2.65 3.53-.76 4.8-.75 3.79-1.39 2.91-2.02 2.27-2.4M959.7 234.67l2.02 2.9M714.52 119.04l-3.76-2.74-4.28-1.08-3.75 1.97-2.14 1.78-4.11.54-3.22-.71-5-4.11-2.67-1.43h-3.75l-1.43.89-3.04-.89-2.32 1.79-2.86 3.03-3.03 1.79-3.4 3.57-3.39 3.03-1.07 3.22-1.43 2.68-2.5 1.25h-4.28l-3.75 1.43-3.93 1.42-5.9 1.97-4.28 1.25-2.86 2.5-4.11 2.32h-2.32l-2.5-1.61h-1.96l-1.25 1.97-5.72-.54-5.53-.53-2.68-2.15-3.75.54-1.79-.54-3.03.9h-3.22l-2.14-2.5-2.86-2.86-3.03-1.61-.72-6.25-2.5-.89-4.28.71-4.11-.53-3.03-2.15-2.68-3.75-2.5-1.96-3.22-.18-2.14 1.25h-2.68l-1.61-1.78-3.03-.9-3.22.36-1.6-.89-3.75-.36-3.75 3.04-5 .89-4.65.89-3.39 3.04-2.86.18-1.78-.9-1.79 1.07-2.5-.35-3.39-1.61-1.07-1.07-4.11-.72-3.57-2.14-5.18-3.75v-4.11l-1.43-1.78v-3.57l-1.43-2.68.72-4.47-1.25-1.424-7.32-2.679-3.22.358-6.25-3.036-5-3.929-7.85.179-1.97-.893-2.5-2.857-3.57-.536-3.57-2.321-3.04-2.5h-1.43l-1.6.893v3.214l-2.15 3.036-3.57.714-2.14 2.678-.18 3.393-3.03 1.072-1.79 3.214-.54 2.854-1.6 3.22.89 3.03.71 1.97.54 3.75 3.93 2.5.18 2.85-.72 3.04-.89 2.68-2.32 3.39-3.39 1.61-2.33.18-1.96 3.21-3.93.72-2.68-1.25-1.96-1.79-8.93-.89-2.14-2.32h-3.57l-2.15-.54-2.85 1.79-3.04-1.08-4.29-.71-3.75-2.68-3.75.54-1.6-2.86-1.25-2.86-.54-5.53-1.25-1.25-11.07-2.15-5.89.18-1.07-2.14-.18-2.68-1.61-.53-1.79 1.25-1.07 1.25-1.07-1.61-1.96-2.14h-1.97l-.71 2.14-2.5 1.43-2.32-1.43-2.32-.36-2.15 1.79-2.5 3.03-6.25.36-4.46 3.21-4.64 1.25-4.83 2.5-3.03 1.79-4.11.36-1.61 3.57-1.25 2.14-1.96 1.43-3.39.36-1.79 2.32-5-.18-2.68-1.43-4.46-.18-2.24 1.21-1.2 3.28-3.16 1.39h-1.39M277.51 132.94l-2.5-5-.75-2.5-2.75-3.5 1.75-3.25-2.5-1.75-1.25 2.75-4.5 2.25-8.5-3.5h-4.75l-1-3.25-2.5-5.25 1.5-1.5-2.25-2.75-7.25-4-.5-9.751-2.5-1-.5-2.75-1.5-2-5.75-5.25h-2l-2 2-3.75-.25-1.25-.75-.75 2.25-2.5 2-2-1.25h-4.25l-2.75-2.5h-6l-.5-4 .75-1.75-1.25-.5h-2.75l-1-2 1-3.25-4.25-4-5.25 2.25v4l-1.25 1.75h-2.75l-1.75 2.25h-1.25l-1.5-7.5-10.75-41-3.25-7-2.5-9.75-13-19.5M142.26 264.19l-5.5-3.75-3.75-1.25-3-6-2-1.25-5.25-1.25-3.25-3.5-10.25-2.5-8.75-2.75-4.995-3.75-6.75.75-10.5-3.75-4.5 2.5-10-4.75-6.75-8.75-3-2.75-3 1-2-1-3.25 1.75h-3l-3 5-2 1.5v3l.5 2.5-1.5-.25-4.25-4-3.5-.25-1-2.25-8-5.75-1.5-.5-7.964-2.23-4.066.53-4.42-.88-4.419 3.36-4.596 32.35 7.425-3.89 3.182 2.47 3.535 3.89 2.122 3.18 7.778 5.31.707 2.47-3.536 4.6H4.364l-9.17 4.55M18.506 299.86l-4.95-.35-3.535-2.12-3.182-.71-11.666 4.42m30.502 49.48-1.607-2.05-3.303-2.41-2.947-1.07-1.964.53-3.036.72-5.089-.72.804-1.78-1.429-1.97-3.84-2.41H.498l-4.689 1.83M19.068 354.15l-3.125.72-2.589 1.16-4.554.1-2.5-1.97-4.017-1.34-5.893-1.51M51.311 406.57l-1.399 2.28-2.121 1.68-2.441 4.63-2.98-2.52-4.441-2.03-5.323 3.09-3.695-1.21-3.782 1.39-7.956-4.34-2.606-1.92-11.011-6.34-14.168 2.15m4.043 59.62 10.983-1.16 2.02-3.28-3.787-4.55-8.428-1.58"/><path d="m65.297 402.27-14.69 4.46" style="stroke-dasharray:4,1"/><path d="m97.952 528.53-3.705 2.27-7.232 4.92-2.277.98-.625 3.61-2.801 3.15-1.01 3.54-2.525 2.65-2.273 3.41-.379 1.51 1.515 2.4 3.031 3.29 1.136 2.14h1.01l1.263-1.77h1.137l1.641 1.77 2.525 3.66 3.788 1.9 1.516 1.39.884 3.15 1.894 2.53 2.525 2.65 4.55 4.29 2.14 1.27 1.9-.26 2.14 1.01 4.42 5.31 2.53.88 2.14-.25 1.52 1.89.38 2.78 3.03 1.26 3.91 1.52 1.77 2.14 1.39.76 1.64-.88 1.64-1.01h2.02l3.29 2.65 1.26.76 1.77-.76 2.77-.88 2.53.5 1.64 1.52 1.77 1.89 3.16 1.01 1.64 2.02-.26 2.78.51 2.27 1.77.89 1.77 1.01 1.76 3.03 1.9.5 2.4 2.02 1.76.89 2.15-1.01 3.66-.26 1.39 1.14.51 3.16 2.4 1.76 1.76-.75 1.77.25 3.16 2.02h2.02l3.79 2.27 3.28 2.4 1.77.13 2.02-.89 1.51-1.13 1.39.63 1.39 2.9 1.64.89 1.14 1.13 2.65-1.01 2.65.63 1.14 1.01 2.78-.88 2.14-.76 2.4 2.02 2.27-.38.64-2.14 1.13-2.15.63-1.39.64-4.16-1.27-2.53-1.13-2.4.12-2.4v-3.16l2.02-2.9.26-1.77 1.76-2.14.63-3.16-.25-2.15M238.71 617.28l-1.78 2.59-.72 1.69 1.25 3.13.89 1.87 1.61.9 1.61 1.78 5.36.54 2.76 1.34 3.04 2.23 4.55.71 4.38-.62 1.78-1.52 2.15-.45 1.78.27 4.11 3.22 7.59-.1 3.84.53 1.96.54 1.7-1.61 1.78-.27 1.52 1.43 4.11.45 2.23-.72 1.52.45 2.23-.1.89-1.16-.53-2.05-1.25-1.52v-1.96l.71-.9 1.07-1.34.1-2.23-1.34-1.61-3.12-.17h-1.7l-1.78-1.97-.9-2.5.72-1.61.98-2.5M226.14 739.05l1.14-6.69-.63-3.79-.76-7.32.76-2.91-.76-3.78v-2.66l1.26-1.38-.63-1.14-2.78-1.14-1.01-1.64.76-1.14.89-1.64-1.27-2.52-1.51-2.02v-2.78l1.01-1.77 1.89-.88 1.14-1.64.38-5.94-.63-1.64-3.04-1.39-2.52-2.02-4.8-4.04-1.01-2.9 1.39-1.27 1.14-3.03 1.39-.88 1.51 1.01 1.01.38 1.39-1.52 1.52-3.66 1.51-.76 3.66.51 3.54.76 1.51-.89-.12-2.02-2.02-1.89-.13-2.53-2.27-1.13h-2.65l-2.53-3.67-1.89-3.4-2.91-1.14-.63-1.39v-1.77l1.39-1.13 1.64-2.78 2.53-.89 2.4-2.02 1.26-.88-.38-1.89-1.39-1.27.25-1.01.89-.88 1.89 2.27 1.77.38 1.39 2.53.63 2.27 1.26.88h1.52l.5-2.14 1.64-1.01 1.39 1.13-1.26 1.64 1.89 1.65 1.39 3.15 2.65 1.9 2.91 1.26 1.39-.63 1.13-2.28 1.14-.37 1.77.37 1.01 3.03v4.3l-.13 5.55-1.13 3.54.37 2.02 1.77 1.26 5.43 2.4 3.03 1.9 6.69.25 5.81-.38 4.8 1.14 3.54 1.26 4.54.5 5.31-.75 3.66.5 2.78 1.77 2.9 2.65.88 2.27-1.26.89h-1.77l-1.64 1.13-1.26 5.31-2.4 3.78-3.28.89-1.01 2.02-2.53.5-3.03 1.65-3.79.25h-1.89l-2.78 3.41-1.14 2.9-1.13 1.64-.25 3.54 1.51 2.65-.38 4.29.51 2.28 1.64-.38.5-1.39 1.14.5.63 2.4 1.26 3.54 1.9.5 1.64-1.39 1.26-1.13-.25-4.55 1.64-2.4 2.15-1.64.5-2.65 1.01-1.52 3.29-.5 1.51-.13 1.52 2.28.12 3.78.76 2.91-.63 3.53.25 4.68 1.39 4.42.88 3.78v7.83l-.37 5.68v4.8l-.26 6.44.26 4.3-1.14.88-1.01-.88-2.02-1.77-1.52-1.01-3.15.12-.76 2.4-.63 4.04-.63 1.77"/><path d="m299.34 744.06 3.21-1.34 4.82 3.04 2.06-3.57 2.94-.98-.18-4.11-.8-3.39 1.34-10.45h3.39l2.06-2.41 1.69-10.71-.53-7.15-.54-2.05.89-.27 1.97 1.34 2.32.45 2.41-.18 5.54 2.41 2.23 1.34.98-.36 2.68-4.73 2.14-4.82 2.32-5.09 3.75-3.93 1.97-4.11.53-2.59-.89-2.59-1.25-1.51.1-1.34 1.96-2.95 1.97-1.34 1.69-.62 4.29-5.18.27-3.13 1.69-1.25.27-1.6-.8-4.38-.1-4.11 1.25-2.5 1.43-1.78 4.46-.63 3.22-2.77 4.82-3.12 5.09-3.66 2.41-2.23 2.23-.54 5.45-.53 2.94-.45 1.52.18 2.59 2.14 2.5 2.77h.89l.81-1.34-3.22-5.54-.71-3.84 1.78-2.14 2.15-1.25 3.84-2.68 1.51-1.07.72-2.23-.81-2.23.81-2.1M410.59 858.08l-4.11-4.46-3.93-5.18-.71-3.04 1.07-1.25-1.07-3.39-1.61-3.57-2.68-1.25-1.79-2.14v-2.86l2.15 1.07 3.03-.71 3.04-2.86-.18-3.57-.71-3.22 2.5-2.85.35-6.61 4.65-7.5 2.14-1.43 2.68 2.32 7.5.18 8.03-1.61.9-3.39.89-3.57 3.39-.72 3.22 1.61 2.32-.53 1.43-2.86-.9-2.68 3.75.36 3.04-.72 1.96-1.43 2.5.36 1.61 1.25 1.07-3.93.89-3.75 3.4-2.5h3.93l1.42-.89-1.25-2.32 1.25-2.14 2.15-1.79.53-2.14 3.75-2.68 4.65-2.68 1.78-1.07"/><path d="m455.1 791.74 1.16 2.23 3.57-2.5 4.77 5.94.14 2.14-2.41 4.25-.76 2.72 2.05 4.6 2.5-1.07 2.5 1.6 2.68-2.32h5l3.04.18-.18 2.32-.36 3.93 1.25 3.57 1.25 2.68-1.43 4.11-.89 4.82-3.39 5 1.07 1.61.89 5-1.79 3.92-2.14 3.75-.71 3.93 1.43 2.86 3.21.54 10.89-10.18 1.43-2.15 4.11-.71 2.14-2.68h1.79l6.07 4.11 4.82.89 1.07 2.14 5.72-2.67h2.5l1.25-4.83 2.14-2.14 1.61-2.32 3.39-.89 2.86.71 4.1 1.25 4.82.89 2.68 1.97 3.4 6.25 4.1 4.82 3.57 2.68 4.11 2.68.72 3.21M499.32 746.4l9.27 10.05 1 5.24 1.22-.21 2.23-1.65 3.16 2.15-.1 2.3-1.79 4.52-.36 2.08 3.59 5.53 3.59 4.67 5.96.64 4.52 2.37 1.44-2.72 6.32-3.52 3.94.86 7.11 5.38.1 1.37-2.72 2.8.43 1.29 2.94.5 1.87 1.87.1 2.15 3.73.1 2.01 3.45-.93 1.72-1.37 1.3-1.22 3.37-5.17 4.38-2.94-1.72-2.22.28-2.23-.57-3.16 1.29 1.22 2.95-2.8 3.3-1 1.29.57 1.29 3.88 1.37 13.35 8.54 5.39 1.22 2.94 1.36 1.29 1.22-.72 1.08-1.29 2.16 1.65 2.58 1.94 2.37 1.15.36 1.15 1.58 2.44-.15 3.3 4.17.36 3.16 3.88 4.52 4.52 4.24"/></g></g></svg>